<svg xmlns="http://www.w3.org/2000/svg" width="380" height="160" viewBox="0 0 38 16">
<path fill="#003256" fill-rule="evenodd" d="M34.1958 3.7665C35.4844 3.7665 36.7234 4.34139 37.4866 5.41186V0.7533C36.3765 0.277532 35.2663 0 34.0571 0C32.0252 0 29.9833 0.911889 28.5659 2.41849C27.1882 3.88544 26.4448 5.84799 26.4448 7.88982C26.4448 10.1101 27.1783 12.0528 28.7642 13.5396C30.2608 14.9471 32.1738 15.74 34.1859 15.74C35.3555 15.74 36.2476 15.4426 37.4965 15.0462V10.3876C36.7135 11.359 35.4844 11.9735 34.2652 11.9735C31.926 11.9735 30.36 10.2687 30.36 7.90965C30.36 5.55063 31.9062 3.7665 34.2058 3.7665M22.1926 15.3534H25.9393V0.396474H22.1926V15.3534ZM13.599 12.0627H12.7565V3.6872H13.6387C16.0572 3.6872 17.7521 5.1938 17.7521 7.87C17.7521 10.7841 15.8391 12.0528 13.599 12.0528M14.3127 0.396474H8.99004V15.3534H14.3127C18.3171 15.3534 21.6475 12.0825 21.6475 7.87991C21.6475 3.67729 18.3369 0.396474 14.3127 0.396474ZM0 15.3435H3.74668V9.47572H7.86009V6.18499H3.74668V3.6872H8.2863V0.396474H0V15.3534V15.3435Z"/>
</svg>

