<svg xmlns="http://www.w3.org/2000/svg" viewBox="0 0 98.8 14.2" style="fill: #565656" aria-labelledby="vsLogoTitle vsLogoDesc">
    <title id="vsLogoTitle">Verisign Logo</title>
    <desc id="vsLogoDesc">Page secured by Verisign</desc>
    <path d="M9.1.4h3.6L8 13.9H4.6L0 .4h3.6L6.4 10zm4.7 0h10V3h-6.6v2.4h6.2V8h-6.2v3.2h7.2v2.7H13.8zm12.9 0h6.1c1.4 0 3.2 0 4.4 1.4a4.75 4.75 0 011.1 3 3.59 3.59 0 01-2.8 3.7l3.1 5.4h-3.7l-2.7-4.8h-2.1v4.8h-3.4zm3.4 2.5v3.6h2.8a1.79 1.79 0 002-1.9c0-1.7-1.2-1.8-1.9-1.8h-2.9zM44.2.4v13.5h-3.4V.4zm4.7 9.4a3.72 3.72 0 001.3 1.1 5.18 5.18 0 002.6.6c1.3 0 2.5-.6 2.5-1.6S53.9 8.7 53 8.5l-2.2-.3c-.8-.2-3.6-.8-3.6-3.7C47.2 1 50.3 0 52.6 0a8.24 8.24 0 016 2.6l-2.5 1.8a6.89 6.89 0 00-1.3-1.1 4.42 4.42 0 00-2.2-.6c-1.3 0-2 .8-2 1.4 0 1 1.1 1.2 1.7 1.3a24.73 24.73 0 014.1.8 3.42 3.42 0 012.3 3.3 4.77 4.77 0 01-1.1 2.9c-1.2 1.4-3.2 1.8-5.1 1.8a7.61 7.61 0 01-6.2-2.7zM64.6.4v13.5h-3.4V.4zm12.3 12.2a5.54 5.54 0 01-4 1.6c-3.8 0-6.1-3.1-6.1-7 0-4.3 2.8-7.2 6.6-7.2a7 7 0 015.9 3.1l-2.6 1.5a3.62 3.62 0 00-3.1-1.9c-2.6 0-3.5 2.1-3.5 4.4a4.62 4.62 0 001.1 3.4 3.22 3.22 0 002.5 1 4.49 4.49 0 001.9-.5 2.44 2.44 0 001.1-2h-3V6.4h5.9v7.5H77v-1.3zM82.3.4h3.3l2.9 5c1.1 1.9 1.4 2.5 2 3.7L90.4.4h3.2v13.5h-3.2l-2.5-4.3a48.28 48.28 0 01-2.4-4.2l.1 8.5h-3.2V.4zm15.1 2.9a1.4 1.4 0 111.4-1.4 1.37 1.37 0 01-1.4 1.4zm0-2.7a1.3 1.3 0 100 2.6A1.31 1.31 0 0098.7 2 1.35 1.35 0 0097.4.6zm.3 2.2l-.3-.7h-.2v.7h-.4V1h.6a.6.6 0 01.4.1.76.76 0 01.2.5.55.55 0 01-.3.5l.3.7zm-.3-1.5h-.2v.5h.2c.2 0 .3-.1.3-.2a.27.27 0 00-.3-.3z"/>
</svg>