<?xml version="1.0" encoding="utf-8"?><svg xmlns="http://www.w3.org/2000/svg" xmlns:xlink="http://www.w3.org/1999/xlink"><symbol viewBox="0 0 24 24" id="arrow-down" xmlns="http://www.w3.org/2000/svg"><path d="M10.95 5.027v11.47l-5.144-5.012c-.412-.4-1.086-.4-1.498 0a1.004 1.004 0 0 0 0 1.448l6.949 6.767c.41.4 1.075.4 1.486 0l6.949-6.767c.41-.4.41-1.047 0-1.448a1.07 1.07 0 0 0-1.487 0l-5.145 5.011V5.026c0-.564-.475-1.026-1.055-1.026s-1.054.462-1.054 1.027z" fill-rule="evenodd"/></symbol><symbol viewBox="0 0 24 24" id="arrow-left" xmlns="http://www.w3.org/2000/svg"><path d="M18.973 10.95H7.503l5.012-5.144c.4-.412.4-1.086 0-1.498a1.004 1.004 0 0 0-1.448 0L4.3 11.257a1.07 1.07 0 0 0 0 1.486l6.767 6.949c.4.41 1.047.41 1.448 0 .4-.412.4-1.076 0-1.487L7.504 13.06h11.47c.564 0 1.026-.475 1.026-1.055s-.462-1.054-1.027-1.054z" fill-rule="evenodd"/></symbol><symbol viewBox="0 0 24 24" id="arrow-right" xmlns="http://www.w3.org/2000/svg"><path d="M5.027 13.054h11.47l-5.012 5.142c-.4.41-.4 1.085 0 1.496.4.41 1.048.41 1.448 0l6.767-6.944c.4-.41.4-1.075 0-1.486l-6.757-6.954c-.4-.41-1.047-.41-1.447 0s-.4 1.075 0 1.486l5 5.152H5.026C4.463 10.946 4 11.42 4 12s.462 1.054 1.027 1.054z" fill-rule="evenodd"/></symbol><symbol viewBox="0 0 24 24" id="arrow-up" xmlns="http://www.w3.org/2000/svg"><path d="M13.054 18.973V7.503l5.142 5.012c.41.4 1.085.4 1.496 0 .41-.4.41-1.048 0-1.448L12.748 4.3a1.07 1.07 0 0 0-1.486 0l-6.954 6.757c-.41.4-.41 1.047 0 1.447s1.075.4 1.486 0l5.152-5v11.47c0 .564.474 1.026 1.054 1.026s1.054-.462 1.054-1.027z" fill-rule="evenodd"/></symbol><symbol viewBox="0 0 24 24" id="arrows-horizontal" xmlns="http://www.w3.org/2000/svg"><path d="M5.13 12.86c.33-.32.87-.1.87.35V15h14c.585 0 1 .45 1 1s-.415 1-1 1H6v1.79c0 .45-.54.67-.88.35l-2.97-2.79a.471.471 0 0 1 .011-.7zM18 5.21c0-.45.54-.67.88-.35l2.97 2.79c.202.19.202.51-.011.7l-2.97 2.79c-.33.32-.869.1-.869-.35V9H4c-.585 0-1-.45-1-1s.415-1 1-1h14z" fill-rule="evenodd"/></symbol><symbol viewBox="0 0 24 24" id="arrows-round" xmlns="http://www.w3.org/2000/svg"><path d="M12 6v1.79c0 .45.54.67.85.35l2.79-2.79c.2-.2.2-.51 0-.71l-2.79-2.79a.5.5 0 0 0-.85.36V4c-4.42 0-8 3.58-8 8 0 1.04.2 2.04.57 2.95.27.67 1.13.85 1.64.34.27-.27.38-.68.23-1.04C6.15 13.56 6 12.79 6 12c0-3.31 2.69-6 6-6zm5.79 2.71c-.27.27-.38.69-.23 1.04.28.7.44 1.46.44 2.25 0 3.31-2.69 6-6 6v-1.79c0-.45-.54-.67-.85-.35l-2.79 2.79c-.2.2-.2.51 0 .71l2.79 2.79a.5.5 0 0 0 .85-.35V20c4.42 0 8-3.58 8-8 0-1.04-.2-2.04-.57-2.95-.27-.67-1.13-.85-1.64-.34z" fill-rule="evenodd"/></symbol><symbol viewBox="0 0 24 24" id="bell" xmlns="http://www.w3.org/2000/svg"><path d="M14 20a2 2 0 1 1-4 0zM12.001 2c.876 0 1.582.69 1.582 1.545v.701c3.017.7 4.746 3.349 4.746 6.512v5.151l1.36 1.33c.665.648.19 1.761-.748 1.761H5.051c-.939 0-1.403-1.113-.738-1.762l1.36-1.329v-5.151c0-3.174 1.72-5.811 4.746-6.512v-.7c0-.856.707-1.546 1.582-1.546z" fill-rule="evenodd"/></symbol><symbol viewBox="0 0 24 24" id="bell-alert" xmlns="http://www.w3.org/2000/svg"><path d="M12 22c1.106 0 2-.894 2-2h-4c0 1.106.894 2 2 2zm7.724-4.571-1.202-1.186V10.73c0-3.079-2.199-5.652-5.124-6.276V3.378C13.398 2.616 12.773 2 12 2s-1.397.616-1.397 1.378v1.076c-2.926.624-5.125 3.197-5.125 6.276v5.513L4.276 17.43C3.69 18.008 4.1 19 4.928 19h14.135c.838 0 1.248-.992.661-1.571zM12 14a1 1 0 1 1 0 2 1 1 0 0 1 0-2zm0-7c.55 0 1 .45 1 1v3c0 .55-.45 1-1 1s-1-.45-1-1V8c0-.55.45-1 1-1z" fill-rule="evenodd"/></symbol><symbol viewBox="0 0 24 24" id="bell-o" xmlns="http://www.w3.org/2000/svg"><path d="m19.688 17.238-1.36-1.329v-5.151c0-3.163-1.73-5.811-4.746-6.512v-.7C13.582 2.69 12.875 2 12 2s-1.582.69-1.582 1.545v.701c-3.026.7-4.745 3.338-4.745 6.512v5.151l-1.36 1.33c-.665.648-.2 1.761.738 1.761h13.888c.95 0 1.413-1.113.749-1.762zM16 17H8v-6.286C8 8.116 9.51 6 12 6s4 2.116 4 4.714zm-4 5c1.1 0 2-.9 2-2h-4a2 2 0 0 0 2 2z" fill-rule="evenodd"/></symbol><symbol viewBox="0 0 24 24" id="calendar" xmlns="http://www.w3.org/2000/svg"><path d="M19.2 3.818h-.9V2.91c0-.5-.405-.909-.9-.909s-.9.41-.9.91v.908h-9V2.91c0-.5-.405-.909-.9-.909s-.9.41-.9.91v.908h-.9c-.99 0-1.8.818-1.8 1.818v14.546c0 1 .81 1.818 1.8 1.818h14.4c.99 0 1.8-.818 1.8-1.818V5.636c0-1-.81-1.818-1.8-1.818zM18.125 20H5.875C5.394 20 5 19.62 5 19.154V9h14v10.154c0 .465-.394.846-.875.846z" fill-rule="evenodd"/></symbol><symbol viewBox="0 0 24 24" id="calendar-date" xmlns="http://www.w3.org/2000/svg"><path d="M16 13h-3c-.55 0-1 .45-1 1v3c0 .55.45 1 1 1h3c.55 0 1-.45 1-1v-3c0-.55-.45-1-1-1zm0-10v1H8V3c0-.55-.45-1-1-1s-1 .45-1 1v1H5c-1.11 0-1.99.9-1.99 2L3 20a2 2 0 0 0 2 2h14c1.1 0 2-.9 2-2V6c0-1.1-.9-2-2-2h-1V3c0-.55-.45-1-1-1s-1 .45-1 1zm2 17H6c-.55 0-1-.45-1-1V9h14v10c0 .55-.45 1-1 1z" fill-rule="evenodd"/></symbol><symbol viewBox="0 0 24 24" id="calendar-today" xmlns="http://www.w3.org/2000/svg"><path d="M19 4h-1V3c0-.55-.45-1-1-1s-1 .45-1 1v1H8V3c0-.55-.45-1-1-1s-1 .45-1 1v1H5c-1.11 0-1.99.9-1.99 2L3 20a2 2 0 0 0 2 2h14c1.1 0 2-.9 2-2V6c0-1.1-.9-2-2-2zm-1 16H6c-.55 0-1-.45-1-1V9h14v10c0 .55-.45 1-1 1zM8 11h3c.55 0 1 .45 1 1v3c0 .55-.45 1-1 1H8c-.55 0-1-.45-1-1v-3c0-.55.45-1 1-1z" fill-rule="evenodd"/></symbol><symbol viewBox="0 0 24 24" id="card-gear" xmlns="http://www.w3.org/2000/svg"><path fill-rule="evenodd" d="M16 4.002a3 3 0 0 1 3 3v4.255l.113.042a4.5 4.5 0 0 1-1.611 8.7 4.5 4.5 0 0 1-4.242-2.996L5 17.002a3 3 0 0 1-3-3v-7a3 3 0 0 1 3-3zM18.186 12h-1.367a.168.168 0 0 0-.168.147l-.13.928c-.208.087-.4.206-.577.343l-.852-.35a.165.165 0 0 0-.208.077l-.684 1.21a.175.175 0 0 0 .041.224l.722.578a2.84 2.84 0 0 0-.024.343c0 .116.01.231.024.343l-.722.578a.18.18 0 0 0-.04.224l.683 1.21a.17.17 0 0 0 .208.078l.852-.35c.177.14.369.255.577.343l.13.927c.01.084.082.147.168.147h1.367a.168.168 0 0 0 .167-.147l.13-.928c.209-.087.4-.206.578-.343l.851.35c.079.032.168 0 .209-.076l.683-1.212a.18.18 0 0 0-.04-.223l-.722-.578c.014-.112.024-.224.024-.343 0-.119-.01-.231-.024-.343l.721-.578a.18.18 0 0 0 .041-.224l-.683-1.21a.17.17 0 0 0-.209-.077l-.85.35a2.484 2.484 0 0 0-.579-.343l-.13-.928a.168.168 0 0 0-.167-.147zm-.684 2.275c.66 0 1.197.55 1.197 1.225s-.537 1.225-1.197 1.225-1.196-.55-1.196-1.225.537-1.225 1.196-1.225zM17 9.002H4v5a1 1 0 0 0 1 1h8.03A4.5 4.5 0 0 1 17 11.029V9.002zm-1-3H5a1 1 0 0 0-1 1h13a1 1 0 0 0-1-1z"/></symbol><symbol viewBox="0 0 24 24" id="checkmark" xmlns="http://www.w3.org/2000/svg"><path d="m8.95 15.726-3.337-3.34a.937.937 0 0 0-1.334 0 .94.94 0 0 0 0 1.336l3.994 3.999a.949.949 0 0 0 1.344 0L19.72 7.615c.372-.372.372-.964 0-1.336s-.963-.372-1.334 0z" fill-rule="evenodd"/></symbol><symbol viewBox="0 0 24 24" id="checkmark-circle" xmlns="http://www.w3.org/2000/svg"><path d="M12 2C6.48 2 2 6.48 2 12s4.48 10 10 10 10-4.48 10-10S17.52 2 12 2zM9.29 16.29 5.7 12.7a.996.996 0 1 1 1.41-1.41L10 14.17l6.88-6.88a.996.996 0 1 1 1.41 1.41l-7.59 7.59a.996.996 0 0 1-1.41 0z" fill-rule="evenodd"/></symbol><symbol viewBox="0 0 24 24" id="checkmark-circle-o" xmlns="http://www.w3.org/2000/svg"><path d="M12 2C6.48 2 2 6.48 2 12s4.48 10 10 10 10-4.48 10-10S17.52 2 12 2zm0 18c-4.41 0-8-3.59-8-8s3.59-8 8-8 8 3.59 8 8-3.59 8-8 8zm3.88-11.71L10 14.17l-1.88-1.88a.996.996 0 1 0-1.41 1.41l2.59 2.59c.39.39 1.02.39 1.41 0L17.3 9.7c.39-.39.39-1.02 0-1.41s-1.03-.39-1.42 0z" fill-rule="evenodd"/></symbol><symbol viewBox="0 0 24 24" id="chevron-double-down" xmlns="http://www.w3.org/2000/svg"><path fill-rule="evenodd" clip-rule="evenodd" d="m12.757 11.69 4.929-4.88a1.051 1.051 0 0 0 0-1.5 1.077 1.077 0 0 0-1.514 0l-4.177 4.125-4.167-4.124a1.077 1.077 0 0 0-1.514 0 1.051 1.051 0 0 0 0 1.499l4.929 4.88a1.077 1.077 0 0 0 1.514 0z"/><path fill-rule="evenodd" clip-rule="evenodd" d="m12.757 17.69 4.929-4.88a1.051 1.051 0 0 0 0-1.5 1.077 1.077 0 0 0-1.514 0l-4.177 4.125-4.167-4.124a1.077 1.077 0 0 0-1.514 0 1.051 1.051 0 0 0 0 1.499l4.929 4.88a1.077 1.077 0 0 0 1.514 0z"/></symbol><symbol viewBox="0 0 24 24" id="chevron-double-up" xmlns="http://www.w3.org/2000/svg"><path fill-rule="evenodd" clip-rule="evenodd" d="m11.243 11.31-4.929 4.88a1.051 1.051 0 0 0 0 1.5 1.077 1.077 0 0 0 1.514 0l4.177-4.126 4.167 4.125a1.077 1.077 0 0 0 1.514 0 1.051 1.051 0 0 0 0-1.499l-4.929-4.88a1.077 1.077 0 0 0-1.514 0z"/><path fill-rule="evenodd" clip-rule="evenodd" d="m11.243 5.31-4.929 4.88a1.051 1.051 0 0 0 0 1.5 1.077 1.077 0 0 0 1.514 0l4.177-4.125 4.167 4.124a1.077 1.077 0 0 0 1.514 0 1.051 1.051 0 0 0 0-1.499l-4.929-4.88a1.077 1.077 0 0 0-1.514 0z"/></symbol><symbol viewBox="0 0 24 24" id="chevron-down" xmlns="http://www.w3.org/2000/svg"><path d="m16.161 9.31-4.166 4.125-4.167-4.124c-.419-.415-1.095-.415-1.514 0s-.419 1.084 0 1.499l4.929 4.88a1.077 1.077 0 0 0 1.514 0l4.929-4.88a1.051 1.051 0 0 0 0-1.5 1.1 1.1 0 0 0-1.525 0z" fill-rule="evenodd"/></symbol><symbol viewBox="0 0 24 24" id="chevron-left" xmlns="http://www.w3.org/2000/svg"><path d="M14.69 6.314a1.051 1.051 0 0 0-1.5 0l-4.88 4.929a1.077 1.077 0 0 0 0 1.514l4.88 4.929a1.051 1.051 0 0 0 1.5 0 1.077 1.077 0 0 0 0-1.514l-4.125-4.177 4.124-4.167a1.087 1.087 0 0 0 0-1.514z" fill-rule="evenodd"/></symbol><symbol viewBox="0 0 24 24" id="chevron-right" xmlns="http://www.w3.org/2000/svg"><path d="M9.31 6.316a1.079 1.079 0 0 0 0 1.515l4.125 4.17-4.124 4.17a1.079 1.079 0 0 0 0 1.515 1.05 1.05 0 0 0 1.499 0l4.88-4.933a1.079 1.079 0 0 0 0-1.515l-4.88-4.933a1.06 1.06 0 0 0-1.5.01z" fill-rule="evenodd"/></symbol><symbol viewBox="0 0 24 24" id="chevron-up" xmlns="http://www.w3.org/2000/svg"><path d="m11.243 8.31-4.929 4.88a1.051 1.051 0 0 0 0 1.5 1.077 1.077 0 0 0 1.514 0l4.177-4.125 4.167 4.124a1.077 1.077 0 0 0 1.514 0 1.051 1.051 0 0 0 0-1.499l-4.929-4.88a1.077 1.077 0 0 0-1.514 0z" fill-rule="evenodd"/></symbol><symbol viewBox="0 0 24 24" id="chevrons-horizontal" xmlns="http://www.w3.org/2000/svg"><path d="m18.285 12-2.506 2.506a1.014 1.014 0 1 0 1.436 1.436l3.24-3.229a1.014 1.014 0 0 0 0-1.436l-3.24-3.23a1.014 1.014 0 1 0-1.436 1.437zm-12.57 0 2.506-2.506a1.014 1.014 0 1 0-1.436-1.436l-3.24 3.229a1.014 1.014 0 0 0 0 1.436l3.23 3.23a1.014 1.014 0 1 0 1.436-1.437z" fill-rule="evenodd"/></symbol><symbol viewBox="0 0 24 24" id="chevrons-vertical" xmlns="http://www.w3.org/2000/svg"><path d="m12 5.715 2.506 2.506a1.014 1.014 0 1 0 1.436-1.436l-3.229-3.24a1.014 1.014 0 0 0-1.436 0l-3.23 3.24A1.014 1.014 0 1 0 9.485 8.22zm0 12.57-2.506-2.506a1.014 1.014 0 1 0-1.436 1.436l3.229 3.24a1.014 1.014 0 0 0 1.436 0l3.23-3.23a1.014 1.014 0 1 0-1.437-1.436z" fill-rule="evenodd"/></symbol><symbol viewBox="0 0 24 24" id="circle" xmlns="http://www.w3.org/2000/svg"><path fill-rule="evenodd" d="M12 2C6.47 2 2 6.47 2 12s4.47 10 10 10 10-4.47 10-10S17.53 2 12 2z"/></symbol><symbol viewBox="0 0 24 24" id="circle-o" xmlns="http://www.w3.org/2000/svg"><path fill-rule="evenodd" d="M12 2C6.47 2 2 6.47 2 12s4.47 10 10 10 10-4.47 10-10S17.53 2 12 2zm0 18c-4.42 0-8-3.58-8-8s3.58-8 8-8 8 3.58 8 8-3.58 8-8 8z"/></symbol><symbol viewBox="0 0 24 24" id="clipboard" xmlns="http://www.w3.org/2000/svg"><path d="M19 4h-4.18C14.4 2.84 13.3 2 12 2s-2.4.84-2.82 2H5c-1.1 0-2 .9-2 2v14c0 1.1.9 2 2 2h14c1.1 0 2-.9 2-2V6c0-1.1-.9-2-2-2zm-7 0c.55 0 1 .45 1 1s-.45 1-1 1-1-.45-1-1 .45-1 1-1zm1 14H8c-.55 0-1-.45-1-1s.45-1 1-1h5c.55 0 1 .45 1 1s-.45 1-1 1zm3-4H8c-.55 0-1-.45-1-1s.45-1 1-1h8c.55 0 1 .45 1 1s-.45 1-1 1zm0-4H8c-.55 0-1-.45-1-1s.45-1 1-1h8c.55 0 1 .45 1 1s-.45 1-1 1z" fill-rule="evenodd"/></symbol><symbol viewBox="0 0 24 24" id="clock" xmlns="http://www.w3.org/2000/svg"><path d="M11.99 2C6.47 2 2 6.48 2 12s4.47 10 9.99 10C17.52 22 22 17.52 22 12S17.52 2 11.99 2zM12 20c-4.42 0-8-3.58-8-8s3.58-8 8-8 8 3.58 8 8-3.58 8-8 8zm-.22-13h-.06c-.4 0-.72.32-.72.72v4.72c0 .35.18.68.49.86l4.15 2.49c.34.2.78.1.98-.24a.71.71 0 0 0-.25-.99l-3.87-2.3V7.72c0-.4-.32-.72-.72-.72z" fill-rule="evenodd"/></symbol><symbol viewBox="0 0 24 24" id="close" xmlns="http://www.w3.org/2000/svg"><path d="M18.69 5.321a1.057 1.057 0 0 0-1.498 0L12 10.503 6.808 5.31A1.057 1.057 0 1 0 5.31 6.808L10.503 12 5.31 17.192a1.057 1.057 0 1 0 1.497 1.497L12 13.497l5.192 5.192a1.057 1.057 0 1 0 1.497-1.497L13.497 12l5.192-5.192a1.064 1.064 0 0 0 0-1.487z" fill-rule="evenodd"/></symbol><symbol viewBox="0 0 24 24" id="damaged" xmlns="http://www.w3.org/2000/svg"><path d="m18 11.438 3 3v4.547c0 .531-.203 1-.609 1.406-.406.406-.875.609-1.406.609H5.016c-.531 0-1-.203-1.406-.609-.406-.406-.609-.875-.609-1.406v-6.563l3 3 3.984-4.031 4.031 4.031L18 11.438zm3-6.422v6.563l-3-3-3.984 4.031-4.031-4.031-3.984 4.031-3-3.047V5.016c0-.531.203-1 .609-1.406.406-.406.875-.609 1.406-.609h13.969c.531 0 1 .203 1.406.609.406.406.609.875.609 1.406z"/></symbol><symbol viewBox="0 0 24 24" id="damaged-o" xmlns="http://www.w3.org/2000/svg"><path d="M5 21c-.55 0-1.02-.196-1.413-.587A1.926 1.926 0 0 1 3 19V5c0-.55.196-1.02.587-1.413A1.926 1.926 0 0 1 5 3h14c.55 0 1.02.196 1.413.587.39.393.587.863.587 1.413v14c0 .55-.196 1.02-.587 1.413A1.926 1.926 0 0 1 19 21H5zm1-8.425 4-4 4 4 4-4 1 1V5H5v6.575l1 1zM5 19h14v-6.6l-1-1-4 4-4-4-4 4-1-1V19zm0 0v-6.6 2V5v14z"/></symbol><symbol viewBox="0 0 24 24" id="double-chevron-left" xmlns="http://www.w3.org/2000/svg"><path fill-rule="evenodd" clip-rule="evenodd" d="M12.69 6.314a1.051 1.051 0 0 0-1.5 0l-4.88 4.929a1.077 1.077 0 0 0 0 1.514l4.88 4.929a1.051 1.051 0 0 0 1.5 0 1.077 1.077 0 0 0 0-1.514l-4.125-4.177 4.124-4.167a1.087 1.087 0 0 0 0-1.514z"/><path fill-rule="evenodd" clip-rule="evenodd" d="M17.992 6.314a1.051 1.051 0 0 0-1.5 0l-4.878 4.929a1.077 1.077 0 0 0 0 1.514l4.879 4.929a1.051 1.051 0 0 0 1.499 0 1.077 1.077 0 0 0 0-1.514l-4.125-4.177 4.125-4.167a1.087 1.087 0 0 0 0-1.514z"/></symbol><symbol viewBox="0 0 24 24" id="double-chevron-right" xmlns="http://www.w3.org/2000/svg"><path fill-rule="evenodd" clip-rule="evenodd" d="M6.31 6.316a1.079 1.079 0 0 0 0 1.515l4.125 4.17-4.124 4.17a1.079 1.079 0 0 0 0 1.515 1.05 1.05 0 0 0 1.499 0l4.88-4.933a1.079 1.079 0 0 0 0-1.515L7.81 6.305a1.06 1.06 0 0 0-1.5.01z"/><path fill-rule="evenodd" clip-rule="evenodd" d="M11.614 6.316a1.078 1.078 0 0 0 0 1.515l4.124 4.17-4.124 4.17a1.079 1.079 0 0 0 0 1.515 1.05 1.05 0 0 0 1.498 0l4.88-4.933a1.078 1.078 0 0 0 0-1.515l-4.88-4.933a1.06 1.06 0 0 0-1.498.01z"/></symbol><symbol viewBox="0 0 24 24" id="download" xmlns="http://www.w3.org/2000/svg"><path d="M16.109 9.718h-1.422V4.953c0-.524-.403-.953-.895-.953h-3.577c-.492 0-.895.429-.895.953v4.765H7.898c-.796 0-1.199 1.029-.635 1.63l4.105 4.373a.853.853 0 0 0 1.261 0l4.106-4.374c.563-.6.17-1.63-.626-1.63zM6 19c0 .55.386 1 .857 1h10.286c.471 0 .857-.45.857-1s-.386-1-.857-1H6.857C6.386 18 6 18.45 6 19z" fill-rule="evenodd"/></symbol><symbol viewBox="0 0 24 24" id="drag-handle" xmlns="http://www.w3.org/2000/svg"><path fill-rule="evenodd" d="M19 9H5c-.55 0-1 .45-1 1s.45 1 1 1h14c.55 0 1-.45 1-1s-.45-1-1-1zM5 15h14c.55 0 1-.45 1-1s-.45-1-1-1H5c-.55 0-1 .45-1 1s.45 1 1 1z"/></symbol><symbol viewBox="0 0 24 24" id="drag-indicator" xmlns="http://www.w3.org/2000/svg"><path fill-rule="evenodd" d="M11 18c0 1.1-.9 2-2 2s-2-.9-2-2 .9-2 2-2 2 .9 2 2zm-2-8c-1.1 0-2 .9-2 2s.9 2 2 2 2-.9 2-2-.9-2-2-2zm0-6c-1.1 0-2 .9-2 2s.9 2 2 2 2-.9 2-2-.9-2-2-2zm6 4c1.1 0 2-.9 2-2s-.9-2-2-2-2 .9-2 2 .9 2 2 2zm0 2c-1.1 0-2 .9-2 2s.9 2 2 2 2-.9 2-2-.9-2-2-2zm0 6c-1.1 0-2 .9-2 2s.9 2 2 2 2-.9 2-2-.9-2-2-2z"/></symbol><symbol viewBox="0 0 24 24" id="envelope" xmlns="http://www.w3.org/2000/svg"><path d="M20 4H4c-1.1 0-2 .9-2 2v12c0 1.1.9 2 2 2h16c1.1 0 2-.9 2-2V6c0-1.1-.9-2-2-2zm-.4 4.25-6.54 4.09c-.65.41-1.47.41-2.12 0L4.4 8.25a.85.85 0 1 1 .9-1.44L12 11l6.7-4.19a.85.85 0 1 1 .9 1.44z" fill-rule="evenodd"/></symbol><symbol viewBox="0 0 24 24" id="envelope-o" xmlns="http://www.w3.org/2000/svg"><path d="M20 4H4c-1.1 0-1.99.9-1.99 2L2 18c0 1.1.9 2 2 2h16c1.1 0 2-.9 2-2V6c0-1.1-.9-2-2-2zm-1 14H5c-.55 0-1-.45-1-1V8l6.94 4.34c.65.41 1.47.41 2.12 0L20 8v9c0 .55-.45 1-1 1zm-7-7L4 6h16z" fill-rule="evenodd"/></symbol><symbol viewBox="0 0 24 24" id="error-circle" xmlns="http://www.w3.org/2000/svg"><path d="M12 2C6.48 2 2 6.48 2 12s4.48 10 10 10 10-4.48 10-10S17.52 2 12 2zm0 13a1 1 0 1 1 0 2 1 1 0 0 1 0-2zm0-8c.55 0 1 .45 1 1v4c0 .55-.45 1-1 1s-1-.45-1-1V8c0-.55.45-1 1-1z" fill-rule="evenodd"/></symbol><symbol viewBox="0 0 24 24" id="error-circle-o" xmlns="http://www.w3.org/2000/svg"><path d="M12 2c5.52 0 10 4.48 10 10s-4.48 10-10 10S2 17.52 2 12 6.48 2 12 2zm0 2c-4.41 0-8 3.59-8 8s3.59 8 8 8 8-3.59 8-8-3.59-8-8-8zm0 11a1 1 0 1 1 0 2 1 1 0 0 1 0-2zm0-8c.55 0 1 .45 1 1v4c0 .55-.45 1-1 1s-1-.45-1-1V8c0-.55.45-1 1-1z" fill-rule="evenodd"/></symbol><symbol viewBox="0 0 24 24" id="facebook" xmlns="http://www.w3.org/2000/svg"><path fill-rule="evenodd" d="M22 12.061C22 6.505 17.523 2 12 2S2 6.505 2 12.061c0 5.022 3.657 9.184 8.438 9.939v-7.03h-2.54v-2.91h2.54V9.845c0-2.522 1.492-3.915 3.777-3.915 1.094 0 2.238.197 2.238.197v2.476h-1.26c-1.243 0-1.63.775-1.63 1.57v1.888h2.773l-.443 2.908h-2.33V22c4.78-.755 8.437-4.917 8.437-9.939z"/></symbol><symbol viewBox="0 0 24 24" id="filter" xmlns="http://www.w3.org/2000/svg"><path d="M11 18h2c.55 0 1-.45 1-1s-.45-1-1-1h-2c-.55 0-1 .45-1 1s.45 1 1 1zM3 7c0 .55.45 1 1 1h16c.55 0 1-.45 1-1s-.45-1-1-1H4c-.55 0-1 .45-1 1zm4 6h10c.55 0 1-.45 1-1s-.45-1-1-1H7c-.55 0-1 .45-1 1s.45 1 1 1z" fill-rule="evenodd"/></symbol><symbol viewBox="0 0 24 24" id="fingerprint" xmlns="http://www.w3.org/2000/svg"><path fill-rule="evenodd" d="M17.81 4.47c-.08 0-.16-.02-.23-.06C15.66 3.42 14 3 12.01 3c-1.98 0-3.86.47-5.57 1.41-.24.13-.54.04-.68-.2a.506.506 0 0 1 .2-.68C7.82 2.52 9.86 2 12.01 2c2.13 0 3.99.47 6.03 1.52.25.13.34.43.21.67a.49.49 0 0 1-.44.28zM3.5 9.72a.499.499 0 0 1-.41-.79c.99-1.4 2.25-2.5 3.75-3.27C9.98 4.04 14 4.03 17.15 5.65c1.5.77 2.76 1.86 3.75 3.25a.5.5 0 0 1-.12.7c-.23.16-.54.11-.7-.12a9.388 9.388 0 0 0-3.39-2.94c-2.87-1.47-6.54-1.47-9.4.01-1.36.7-2.5 1.7-3.4 2.96-.08.14-.23.21-.39.21zm6.25 12.07a.47.47 0 0 1-.35-.15c-.87-.87-1.34-1.43-2.01-2.64-.69-1.23-1.05-2.73-1.05-4.34 0-2.97 2.54-5.39 5.66-5.39s5.66 2.42 5.66 5.39c0 .28-.22.5-.5.5s-.5-.22-.5-.5c0-2.42-2.09-4.39-4.66-4.39-2.57 0-4.66 1.97-4.66 4.39 0 1.44.32 2.77.93 3.85.64 1.15 1.08 1.64 1.85 2.42.19.2.19.51 0 .71-.11.1-.24.15-.37.15zm7.17-1.85c-1.19 0-2.24-.3-3.1-.89-1.49-1.01-2.38-2.65-2.38-4.39 0-.28.22-.5.5-.5s.5.22.5.5c0 1.41.72 2.74 1.94 3.56.71.48 1.54.71 2.54.71.24 0 .64-.03 1.04-.1.27-.05.53.13.58.41.05.27-.13.53-.41.58-.57.11-1.07.12-1.21.12zM14.91 22c-.04 0-.09-.01-.13-.02-1.59-.44-2.63-1.03-3.72-2.1a7.297 7.297 0 0 1-2.17-5.22c0-1.62 1.38-2.94 3.08-2.94 1.7 0 3.08 1.32 3.08 2.94 0 1.07.93 1.94 2.08 1.94s2.08-.87 2.08-1.94c0-3.77-3.25-6.83-7.25-6.83-2.84 0-5.44 1.58-6.61 4.03-.39.81-.59 1.76-.59 2.8 0 .78.07 2.01.67 3.61.1.26-.03.55-.29.64-.26.1-.55-.04-.64-.29a11.14 11.14 0 0 1-.73-3.96c0-1.2.23-2.29.68-3.24 1.33-2.79 4.28-4.6 7.51-4.6 4.55 0 8.25 3.51 8.25 7.83 0 1.62-1.38 2.94-3.08 2.94-1.7 0-3.08-1.32-3.08-2.94 0-1.07-.93-1.94-2.08-1.94s-2.08.87-2.08 1.94c0 1.71.66 3.31 1.87 4.51.95.94 1.86 1.46 3.27 1.85.27.07.42.35.35.61-.05.23-.26.38-.47.38z"/></symbol><symbol viewBox="0 0 24 24" id="format-align-center" xmlns="http://www.w3.org/2000/svg"><path d="M7 16c0 .55.45 1 1 1h8c.55 0 1-.45 1-1s-.45-1-1-1H8c-.55 0-1 .45-1 1zm-3 5h16c.55 0 1-.45 1-1s-.45-1-1-1H4c-.55 0-1 .45-1 1s.45 1 1 1zm0-8h16c.55 0 1-.45 1-1s-.45-1-1-1H4c-.55 0-1 .45-1 1s.45 1 1 1zm3-5c0 .55.45 1 1 1h8c.55 0 1-.45 1-1s-.45-1-1-1H8c-.55 0-1 .45-1 1zM3 4c0 .55.45 1 1 1h16c.55 0 1-.45 1-1s-.45-1-1-1H4c-.55 0-1 .45-1 1z" fill-rule="evenodd"/></symbol><symbol viewBox="0 0 24 24" id="format-align-justify" xmlns="http://www.w3.org/2000/svg"><path d="M4 21h16c.55 0 1-.45 1-1s-.45-1-1-1H4c-.55 0-1 .45-1 1s.45 1 1 1zm0-4h16c.55 0 1-.45 1-1s-.45-1-1-1H4c-.55 0-1 .45-1 1s.45 1 1 1zm0-4h16c.55 0 1-.45 1-1s-.45-1-1-1H4c-.55 0-1 .45-1 1s.45 1 1 1zm0-4h16c.55 0 1-.45 1-1s-.45-1-1-1H4c-.55 0-1 .45-1 1s.45 1 1 1zM3 4c0 .55.45 1 1 1h16c.55 0 1-.45 1-1s-.45-1-1-1H4c-.55 0-1 .45-1 1z" fill-rule="evenodd"/></symbol><symbol viewBox="0 0 24 24" id="format-align-left" xmlns="http://www.w3.org/2000/svg"><path d="M14 15H4c-.55 0-1 .45-1 1s.45 1 1 1h10c.55 0 1-.45 1-1s-.45-1-1-1zm0-8H4c-.55 0-1 .45-1 1s.45 1 1 1h10c.55 0 1-.45 1-1s-.45-1-1-1zM4 13h16c.55 0 1-.45 1-1s-.45-1-1-1H4c-.55 0-1 .45-1 1s.45 1 1 1zm0 8h16c.55 0 1-.45 1-1s-.45-1-1-1H4c-.55 0-1 .45-1 1s.45 1 1 1zM3 4c0 .55.45 1 1 1h16c.55 0 1-.45 1-1s-.45-1-1-1H4c-.55 0-1 .45-1 1z" fill-rule="evenodd"/></symbol><symbol viewBox="0 0 24 24" id="format-align-right" xmlns="http://www.w3.org/2000/svg"><path d="M4 21h16c.55 0 1-.45 1-1s-.45-1-1-1H4c-.55 0-1 .45-1 1s.45 1 1 1zm6-4h10c.55 0 1-.45 1-1s-.45-1-1-1H10c-.55 0-1 .45-1 1s.45 1 1 1zm-6-4h16c.55 0 1-.45 1-1s-.45-1-1-1H4c-.55 0-1 .45-1 1s.45 1 1 1zm6-4h10c.55 0 1-.45 1-1s-.45-1-1-1H10c-.55 0-1 .45-1 1s.45 1 1 1zM3 4c0 .55.45 1 1 1h16c.55 0 1-.45 1-1s-.45-1-1-1H4c-.55 0-1 .45-1 1z" fill-rule="evenodd"/></symbol><symbol viewBox="0 0 24 24" id="format-list-bullet" xmlns="http://www.w3.org/2000/svg"><path d="M4 10.5c-.83 0-1.5.67-1.5 1.5s.67 1.5 1.5 1.5 1.5-.67 1.5-1.5-.67-1.5-1.5-1.5zm0-6c-.83 0-1.5.67-1.5 1.5S3.17 7.5 4 7.5 5.5 6.83 5.5 6 4.83 4.5 4 4.5zm0 12c-.83 0-1.5.68-1.5 1.5s.68 1.5 1.5 1.5 1.5-.68 1.5-1.5-.67-1.5-1.5-1.5zM8 19h12c.55 0 1-.45 1-1s-.45-1-1-1H8c-.55 0-1 .45-1 1s.45 1 1 1zm0-6h12c.55 0 1-.45 1-1s-.45-1-1-1H8c-.55 0-1 .45-1 1s.45 1 1 1zM7 6c0 .55.45 1 1 1h12c.55 0 1-.45 1-1s-.45-1-1-1H8c-.55 0-1 .45-1 1z" fill-rule="evenodd"/></symbol><symbol viewBox="0 0 24 24" id="format-list-number" xmlns="http://www.w3.org/2000/svg"><path d="M8.929 7H20.07c.511 0 .929-.45.929-1s-.418-1-.929-1H8.93C8.418 5 8 5.45 8 6s.418 1 .929 1zM20.07 17H8.93c-.512 0-.93.45-.93 1s.418 1 .929 1H20.07c.511 0 .929-.45.929-1s-.418-1-.929-1zm0-6H8.93c-.512 0-.93.45-.93 1s.418 1 .929 1H20.07c.511 0 .929-.45.929-1s-.418-1-.929-1zM5.5 16h-2c-.28 0-.5.22-.5.5s.22.5.5.5H5v.5h-.5c-.28 0-.5.22-.5.5s.22.5.5.5H5v.5H3.5c-.28 0-.5.22-.5.5s.22.5.5.5h2c.28 0 .5-.22.5-.5v-3c0-.28-.22-.5-.5-.5zm-2-11H4v2.5c0 .28.22.5.5.5s.5-.22.5-.5v-3c0-.28-.22-.5-.5-.5h-1c-.28 0-.5.22-.5.5s.22.5.5.5zm2 5h-2c-.28 0-.5.22-.5.5s.22.5.5.5h1.3l-1.68 1.96a.49.49 0 0 0-.12.32v.22c0 .28.22.5.5.5h2c.28 0 .5-.22.5-.5s-.22-.5-.5-.5H4.2l1.68-1.96a.49.49 0 0 0 .12-.32v-.22c0-.28-.22-.5-.5-.5z" fill="#231f20" fill-rule="evenodd"/></symbol><symbol viewBox="0 0 24 24" id="format-text-bold" xmlns="http://www.w3.org/2000/svg"><path d="M15.6 11.79c.97-.67 1.65-1.77 1.65-2.79 0-2.26-1.75-4-4-4H8c-.55 0-1 .45-1 1v12c0 .55.45 1 1 1h5.78c2.07 0 3.96-1.69 3.97-3.77.01-1.53-.85-2.84-2.15-3.44zM10 7.5h3c.83 0 1.5.67 1.5 1.5s-.67 1.5-1.5 1.5h-3zm3.5 9H10v-3h3.5c.83 0 1.5.67 1.5 1.5s-.67 1.5-1.5 1.5z" fill-rule="evenodd"/></symbol><symbol viewBox="0 0 24 24" id="format-text-italic" xmlns="http://www.w3.org/2000/svg"><path d="M10 6.5c0 .83.67 1.5 1.5 1.5h.71l-3.42 8H7.5c-.83 0-1.5.67-1.5 1.5S6.67 19 7.5 19h5c.83 0 1.5-.67 1.5-1.5s-.67-1.5-1.5-1.5h-.71l3.42-8h1.29c.83 0 1.5-.67 1.5-1.5S17.33 5 16.5 5h-5c-.83 0-1.5.67-1.5 1.5z" fill-rule="evenodd"/></symbol><symbol viewBox="0 0 24 24" id="format-text-strike" xmlns="http://www.w3.org/2000/svg"><path d="M12 20c1.1 0 2-.9 2-2v-1h-4v1c0 1.1.9 2 2 2zM5 6.5C5 7.33 5.67 8 6.5 8H10v3h4V8h3.5c.83 0 1.5-.67 1.5-1.5S18.33 5 17.5 5h-11C5.67 5 5 5.67 5 6.5zM4 15h16c.55 0 1-.45 1-1s-.45-1-1-1H4c-.55 0-1 .45-1 1s.45 1 1 1z" fill-rule="evenodd"/></symbol><symbol viewBox="0 0 24 24" id="format-text-underline" xmlns="http://www.w3.org/2000/svg"><path d="M12.79 16.95c3.03-.39 5.21-3.11 5.21-6.16V4.25a1.25 1.25 0 0 0-2.5 0v6.65c0 1.67-1.13 3.19-2.77 3.52A3.494 3.494 0 0 1 8.5 11V4.25a1.25 1.25 0 0 0-2.5 0V11c0 3.57 3.13 6.42 6.79 5.95zM5 20c0 .55.45 1 1 1h12c.55 0 1-.45 1-1s-.45-1-1-1H6c-.55 0-1 .45-1 1z" fill-rule="evenodd"/></symbol><symbol viewBox="0 0 24 24" id="full-screen-close" xmlns="http://www.w3.org/2000/svg"><path d="M4.418 3.473a.668.668 0 0 0-.946.945l6.233 6.232h-3.78a.675.675 0 1 0 0 1.35H12V5.925a.675.675 0 1 0-1.35 0v3.78L4.418 3.473zM12 12v6.075a.675.675 0 1 0 1.35 0v-3.78l6.232 6.232a.668.668 0 1 0 .945-.945l-6.232-6.232h3.78a.675.675 0 1 0 0-1.35H12z"/><path d="M12 12H5.925a.675.675 0 0 1-.675-.675c0-.373.302-.675.675-.675h3.78L3.473 4.418a.668.668 0 0 1 0-.946.668.668 0 0 1 .945 0l6.232 6.233v-3.78a.675.675 0 1 1 1.35 0V12zm0 0v6.075c0 .373.302.675.675.675a.675.675 0 0 0 .675-.675v-3.78l6.232 6.232a.668.668 0 0 0 .945 0 .668.668 0 0 0 0-.945l-6.232-6.232h3.78a.675.675 0 0 0 .675-.675.675.675 0 0 0-.675-.675H12z" stroke="#fff" stroke-width=".3"/></symbol><symbol viewBox="0 0 24 24" id="full-screen-open" xmlns="http://www.w3.org/2000/svg"><path d="M4.607 20A.607.607 0 0 1 4 19.393v-5.768a.708.708 0 0 1 1.417 0v3.967L18.592 4.417h-3.967a.708.708 0 0 1 0-1.417h5.768c.335 0 .607.272.607.607v5.768a.708.708 0 1 1-1.417 0V5.408L6.408 18.583h3.967a.708.708 0 0 1 0 1.417H4.607z" stroke="#fff" stroke-width=".3"/></symbol><symbol viewBox="0 0 24 24" id="gear" xmlns="http://www.w3.org/2000/svg"><path d="M19.259 12.98c.039-.32.068-.64.068-.98s-.03-.66-.068-.98l2.06-1.65a.513.513 0 0 0 .118-.64l-1.954-3.46a.485.485 0 0 0-.595-.22l-2.432 1a7.097 7.097 0 0 0-1.65-.98l-.372-2.65a.48.48 0 0 0-.479-.42H10.05a.48.48 0 0 0-.479.42L9.2 5.07c-.597.25-1.144.59-1.651.98l-2.432-1a.471.471 0 0 0-.596.22L2.568 8.73a.5.5 0 0 0 .117.64l2.06 1.65c-.038.32-.068.65-.068.98s.03.66.069.98l-2.061 1.65a.513.513 0 0 0-.117.64l1.953 3.46c.117.22.38.3.596.22l2.432-1c.507.4 1.054.73 1.65.98l.371 2.65c.03.24.235.42.479.42h3.906a.48.48 0 0 0 .479-.42l.371-2.65a7.463 7.463 0 0 0 1.65-.98l2.433 1a.47.47 0 0 0 .595-.22l1.954-3.46a.513.513 0 0 0-.118-.64zm-7.257 2.52c-1.885 0-3.418-1.57-3.418-3.5s1.533-3.5 3.418-3.5 3.418 1.57 3.418 3.5-1.533 3.5-3.418 3.5z" fill-rule="evenodd"/></symbol><symbol viewBox="0 0 24 24" id="globe" xmlns="http://www.w3.org/2000/svg"><path d="M12 22a9.676 9.676 0 0 1-3.875-.788 10.144 10.144 0 0 1-3.188-2.15 10.142 10.142 0 0 1-2.15-3.187A9.676 9.676 0 0 1 2 12c0-1.383.263-2.68.788-3.887a10.183 10.183 0 0 1 2.15-3.175 10.143 10.143 0 0 1 3.187-2.15A9.676 9.676 0 0 1 12 2c1.383 0 2.68.263 3.887.788a10.183 10.183 0 0 1 3.175 2.15 10.184 10.184 0 0 1 2.15 3.175A9.649 9.649 0 0 1 22 12a9.676 9.676 0 0 1-.788 3.875 10.143 10.143 0 0 1-2.15 3.188 10.184 10.184 0 0 1-3.175 2.15A9.649 9.649 0 0 1 12 22zm0-2.05c.433-.6.808-1.225 1.125-1.875.317-.65.575-1.342.775-2.075h-3.8c.2.733.458 1.425.775 2.075.317.65.692 1.275 1.125 1.875zm-2.6-.4c-.3-.55-.563-1.12-.787-1.713A14.688 14.688 0 0 1 8.05 16H5.1a8.3 8.3 0 0 0 1.813 2.175A7.195 7.195 0 0 0 9.4 19.55zm5.2 0a7.195 7.195 0 0 0 2.487-1.375A8.299 8.299 0 0 0 18.9 16h-2.95c-.15.633-.337 1.246-.563 1.837a13.857 13.857 0 0 1-.787 1.713zM4.25 14h3.4a13.208 13.208 0 0 1-.15-2 13.208 13.208 0 0 1 .15-2h-3.4A7.959 7.959 0 0 0 4 12a7.959 7.959 0 0 0 .25 2zm5.4 0h4.7a13.208 13.208 0 0 0 .15-2 13.208 13.208 0 0 0-.15-2h-4.7a13.208 13.208 0 0 0-.15 2 13.208 13.208 0 0 0 .15 2zm6.7 0h3.4a7.953 7.953 0 0 0 .25-2 7.953 7.953 0 0 0-.25-2h-3.4a13.208 13.208 0 0 1 .15 2 13.208 13.208 0 0 1-.15 2zm-.4-6h2.95a8.298 8.298 0 0 0-1.813-2.175A7.196 7.196 0 0 0 14.6 4.45c.3.55.563 1.12.787 1.712.226.592.413 1.205.563 1.838zM10.1 8h3.8a11.82 11.82 0 0 0-.775-2.075A12.701 12.701 0 0 0 12 4.05c-.433.6-.808 1.225-1.125 1.875A11.82 11.82 0 0 0 10.1 8zm-5 0h2.95c.15-.633.337-1.246.563-1.838C8.838 5.571 9.1 5 9.4 4.45c-.933.3-1.763.758-2.488 1.375A8.298 8.298 0 0 0 5.1 8z"/></symbol><symbol viewBox="0 0 24 24" id="headset-alt" xmlns="http://www.w3.org/2000/svg"><path d="M4.5 15.482c-1.684-.189-3-1.787-3-3.732 0-2.001 1.394-3.637 3.149-3.744a7.503 7.503 0 0 1 14.702 0c1.755.107 3.149 1.743 3.149 3.744 0 2.047-1.458 3.711-3.27 3.75a7.513 7.513 0 0 1-5.384 5.271 2 2 0 1 1-.268-2A5.502 5.502 0 0 0 17.5 13.5v-4a5.5 5.5 0 1 0-11 0V16a1 1 0 1 1-2 0v-.518z"/></symbol><symbol viewBox="0 0 24 24" id="home" xmlns="http://www.w3.org/2000/svg"><path d="M10 19v-5h4v5c0 .55.45 1 1 1h3c.55 0 1-.45 1-1v-7h1.7c.46 0 .68-.57.33-.87L12.67 3.6c-.38-.34-.96-.34-1.34 0l-8.36 7.53c-.34.3-.13.87.33.87H5v7c0 .55.45 1 1 1h3c.55 0 1-.45 1-1z" fill-rule="evenodd"/></symbol><symbol viewBox="0 0 24 24" id="info-circle" xmlns="http://www.w3.org/2000/svg"><path d="M12 2C6.48 2 2 6.48 2 12s4.48 10 10 10 10-4.48 10-10S17.52 2 12 2zm0 9c.55 0 1 .45 1 1v4c0 .55-.45 1-1 1s-1-.45-1-1v-4c0-.55.45-1 1-1zm0-4a1 1 0 1 1 0 2 1 1 0 0 1 0-2z" fill-rule="evenodd"/></symbol><symbol viewBox="0 0 24 24" id="info-circle-o" xmlns="http://www.w3.org/2000/svg"><path d="M12 2c5.52 0 10 4.48 10 10s-4.48 10-10 10S2 17.52 2 12 6.48 2 12 2zm0 2c-4.41 0-8 3.59-8 8s3.59 8 8 8 8-3.59 8-8-3.59-8-8-8zm0 7c.55 0 1 .45 1 1v4c0 .55-.45 1-1 1s-1-.45-1-1v-4c0-.55.45-1 1-1zm0-4a1 1 0 1 1 0 2 1 1 0 0 1 0-2z" fill-rule="evenodd"/></symbol><symbol viewBox="0 0 24 24" id="instagram" xmlns="http://www.w3.org/2000/svg"><path fill-rule="evenodd" d="M12 2c-2.717 0-3.056.013-4.122.06-1.066.05-1.79.217-2.428.465a4.897 4.897 0 0 0-1.772 1.153A4.88 4.88 0 0 0 2.525 5.45c-.248.638-.416 1.362-.465 2.428C2.01 8.944 2 9.283 2 12c0 2.717.013 3.056.06 4.122.05 1.065.217 1.79.465 2.428a4.904 4.904 0 0 0 1.153 1.772 4.89 4.89 0 0 0 1.772 1.153c.638.247 1.363.416 2.428.465 1.066.05 1.405.06 4.122.06 2.717 0 3.056-.012 4.122-.06 1.065-.05 1.79-.218 2.428-.465a4.915 4.915 0 0 0 1.772-1.153 4.884 4.884 0 0 0 1.153-1.772c.247-.637.416-1.363.465-2.428.05-1.066.06-1.405.06-4.122 0-2.717-.012-3.056-.06-4.122-.05-1.065-.218-1.791-.465-2.428a4.908 4.908 0 0 0-1.153-1.772 4.872 4.872 0 0 0-1.772-1.153c-.637-.248-1.363-.416-2.428-.465C15.056 2.01 14.717 2 12 2zm0 1.8c2.67 0 2.988.013 4.042.06.975.045 1.504.207 1.855.345.469.18.8.397 1.152.747.35.35.566.682.747 1.15.137.352.3.881.344 1.856.047 1.055.058 1.372.058 4.042s-.012 2.988-.061 4.042c-.051.975-.214 1.504-.351 1.855-.187.469-.4.8-.75 1.152a3.12 3.12 0 0 1-1.15.747c-.35.137-.887.3-1.862.344-1.062.047-1.374.058-4.049.058-2.676 0-2.988-.012-4.05-.061-.975-.051-1.513-.214-1.862-.351-.475-.187-.8-.4-1.15-.75a3.036 3.036 0 0 1-.75-1.15c-.137-.35-.299-.887-.35-1.862-.037-1.05-.05-1.374-.05-4.037s.013-2.988.05-4.05c.051-.975.213-1.512.35-1.862.175-.475.4-.8.75-1.15.35-.35.675-.575 1.15-.75.35-.138.875-.3 1.85-.35 1.063-.038 1.375-.05 4.05-.05L12 3.8zm0 3.065a5.135 5.135 0 1 0 0 10.27 5.135 5.135 0 0 0 0-10.27zm0 8.468a3.332 3.332 0 1 1 0-6.666 3.332 3.332 0 1 1 0 6.666zm6.538-8.67a1.2 1.2 0 0 1-2.4 0 1.2 1.2 0 0 1 2.4 0z"/></symbol><symbol viewBox="0 0 24 24" id="institution" xmlns="http://www.w3.org/2000/svg"><path d="M4.5 11.5v4c0 .83.67 1.5 1.5 1.5s1.5-.67 1.5-1.5v-4c0-.83-.67-1.5-1.5-1.5s-1.5.67-1.5 1.5zm6 0v4c0 .83.67 1.5 1.5 1.5s1.5-.67 1.5-1.5v-4c0-.83-.67-1.5-1.5-1.5s-1.5.67-1.5 1.5zM4 22h16c.83 0 1.5-.67 1.5-1.5S20.83 19 20 19H4c-.83 0-1.5.67-1.5 1.5S3.17 22 4 22zm12.5-10.5v4c0 .83.67 1.5 1.5 1.5s1.5-.67 1.5-1.5v-4c0-.83-.67-1.5-1.5-1.5s-1.5.67-1.5 1.5zm-5.43-9.293-7.9 3.702c-.41.187-.67.57-.67.979C2.5 7.502 3.06 8 3.75 8h16.51c.68 0 1.24-.498 1.24-1.112 0-.41-.26-.792-.67-.98l-7.9-3.701a2.194 2.194 0 0 0-1.86 0z" fill-rule="evenodd"/></symbol><symbol viewBox="0 0 24 24" id="launch" xmlns="http://www.w3.org/2000/svg"><path fill-rule="evenodd" d="M18 19H6c-.55 0-1-.45-1-1V6c0-.55.45-1 1-1h5c.55 0 1-.45 1-1s-.45-1-1-1H5a2 2 0 0 0-2 2v14c0 1.1.9 2 2 2h14c1.1 0 2-.9 2-2v-6c0-.55-.45-1-1-1s-1 .45-1 1v5c0 .55-.45 1-1 1zM14 4c0 .55.45 1 1 1h2.59l-9.13 9.13a.996.996 0 1 0 1.41 1.41L19 6.41V9c0 .55.45 1 1 1s1-.45 1-1V3h-6c-.55 0-1 .45-1 1z"/></symbol><symbol viewBox="0 0 24 24" id="leaf" xmlns="http://www.w3.org/2000/svg"><path fill-rule="evenodd" d="M6.055 8.022a7.018 7.018 0 0 0-.02 9.904c1.474-3.408 4.1-6.255 7.378-7.949A15.99 15.99 0 0 0 8.01 19.32c2.606 1.233 5.814.782 7.97-1.374 2.996-2.997 3.838-11.167 4.019-13.412a.49.49 0 0 0-.531-.532c-2.246.18-10.416 1.023-13.413 4.02z"/></symbol><symbol viewBox="0 0 24 24" id="link" xmlns="http://www.w3.org/2000/svg"><path fill-rule="evenodd" d="M17 7h-3c-.55 0-1 .45-1 1s.45 1 1 1h3c1.65 0 3 1.35 3 3s-1.35 3-3 3h-3c-.55 0-1 .45-1 1s.45 1 1 1h3c2.76 0 5-2.24 5-5s-2.24-5-5-5zm-9 5c0 .55.45 1 1 1h6c.55 0 1-.45 1-1s-.45-1-1-1H9c-.55 0-1 .45-1 1zm2 3H7c-1.65 0-3-1.35-3-3s1.35-3 3-3h3c.55 0 1-.45 1-1s-.45-1-1-1H7c-2.76 0-5 2.24-5 5s2.24 5 5 5h3c.55 0 1-.45 1-1s-.45-1-1-1z"/></symbol><symbol viewBox="0 0 24 24" id="linkedin" xmlns="http://www.w3.org/2000/svg"><path fill-rule="evenodd" d="M19.04 19.043h-2.962v-4.64c0-1.107-.023-2.531-1.544-2.531-1.544 0-1.78 1.204-1.78 2.449v4.722H9.793V9.5h2.845v1.3h.038c.397-.75 1.364-1.54 2.808-1.54 3.001 0 3.556 1.974 3.556 4.545v5.238zM6.447 8.194c-.954 0-1.72-.772-1.72-1.72a1.72 1.72 0 1 1 1.72 1.72zm1.484 10.85h-2.97V9.5h2.97v9.543zM20.521 2H3.476C2.66 2 2 2.645 2 3.44v17.12c0 .796.66 1.44 1.476 1.44h17.042c.815 0 1.482-.644 1.482-1.44V3.44C22 2.646 21.333 2 20.518 2h.003z"/></symbol><symbol viewBox="0 0 24 24" id="locator" xmlns="http://www.w3.org/2000/svg"><path fill-rule="evenodd" d="M12 2C8.13 2 5 5.025 5 9c0 4.284 4.42 10.38 6.24 12.63a.976.976 0 0 0 1.53 0C14.58 19.38 19 13.284 19 9c0-3.975-3.13-7-7-7zm0 9.5a2.5 2.5 0 0 1 0-5 2.5 2.5 0 0 1 0 5z"/></symbol><symbol viewBox="0 0 24 24" id="locator-missing" xmlns="http://www.w3.org/2000/svg"><path fill-rule="evenodd" clip-rule="evenodd" d="M5.987 15.637C7.313 17.596 9.317 19.718 12 22c2.683-2.283 4.688-4.404 6.012-6.363C19.337 13.68 20 11.867 20 10.2c0-2.5-.804-4.492-2.413-5.975C15.98 2.742 14.117 2 12 2c-2.117 0-3.98.742-5.588 2.225S4 7.7 4 10.2c0 1.667.662 3.48 1.987 5.438zM8.5 7.914 9.914 6.5l2.122 2.121 2.12-2.121 1.415 1.414-2.121 2.122 2.121 2.12-1.414 1.415-2.121-2.121-2.122 2.121L8.5 12.157l2.121-2.121L8.5 7.914z"/></symbol><symbol viewBox="0 0 24 24" id="locator-missing-o" xmlns="http://www.w3.org/2000/svg"><path d="M12 19.35c2.033-1.867 3.542-3.563 4.525-5.088C17.508 12.738 18 11.383 18 10.2c0-1.817-.58-3.304-1.738-4.462C15.104 4.579 13.683 4 12 4c-1.683 0-3.104.58-4.263 1.737C6.58 6.896 6 8.383 6 10.2c0 1.183.492 2.538 1.475 4.063.983 1.524 2.492 3.22 4.525 5.087zM12 22c-2.683-2.283-4.688-4.404-6.013-6.363C4.662 13.68 4 11.867 4 10.2c0-2.5.804-4.492 2.412-5.975C8.021 2.742 9.883 2 12 2s3.98.742 5.587 2.225C19.197 5.708 20 7.7 20 10.2c0 1.667-.663 3.48-1.988 5.438C16.688 17.595 14.683 19.716 12 22z"/><path d="m14.157 6.5 1.414 1.414-5.657 5.657L8.5 12.157 14.157 6.5z"/><path d="M8.5 7.914 9.914 6.5l5.657 5.657-1.414 1.414L8.5 7.914z"/></symbol><symbol viewBox="0 0 24 24" id="locator-unknown" xmlns="http://www.w3.org/2000/svg"><path d="M12 16c.283 0 .53-.104.738-.313.208-.208.312-.454.312-.737s-.104-.53-.313-.737A1.009 1.009 0 0 0 12 13.9c-.283 0-.53.104-.738.313a1.009 1.009 0 0 0-.312.737c0 .283.104.53.313.738.208.208.454.312.737.312zm-.75-3.1h1.5c0-.317.012-.567.037-.75.025-.183.063-.333.113-.45a1.96 1.96 0 0 1 .287-.412c.126-.142.33-.355.613-.638.35-.35.612-.7.787-1.05.175-.35.263-.7.263-1.05 0-.783-.258-1.404-.775-1.863C13.558 6.23 12.867 6 12 6c-.683 0-1.283.192-1.8.575A2.823 2.823 0 0 0 9.15 8.1l1.35.55c.117-.383.308-.68.575-.888A1.46 1.46 0 0 1 12 7.45c.4 0 .725.108.975.325.25.217.375.492.375.825 0 .283-.063.53-.188.738-.125.208-.345.445-.662.712a5.73 5.73 0 0 0-.675.637c-.167.192-.292.38-.375.563a1.78 1.78 0 0 0-.162.613 10.81 10.81 0 0 0-.038 1.037zM12 22c-2.683-2.283-4.688-4.404-6.013-6.363C4.662 13.68 4 11.867 4 10.2c0-2.5.804-4.492 2.412-5.975C8.021 2.742 9.883 2 12 2s3.98.742 5.587 2.225C19.197 5.708 20 7.7 20 10.2c0 1.667-.663 3.48-1.988 5.438C16.688 17.595 14.683 19.716 12 22z"/></symbol><symbol viewBox="0 0 24 24" id="locator-unknown-o" xmlns="http://www.w3.org/2000/svg"><path d="M12 16c.283 0 .53-.104.738-.313.208-.208.312-.454.312-.737s-.104-.53-.313-.737A1.009 1.009 0 0 0 12 13.9c-.283 0-.53.104-.738.313a1.009 1.009 0 0 0-.312.737c0 .283.104.53.313.738.208.208.454.312.737.312zm-.75-3.1h1.5c0-.317.012-.567.037-.75.025-.183.063-.333.113-.45a1.96 1.96 0 0 1 .287-.412c.126-.142.33-.355.613-.638.35-.35.612-.7.787-1.05.175-.35.263-.7.263-1.05 0-.783-.258-1.404-.775-1.863C13.558 6.23 12.867 6 12 6c-.683 0-1.283.192-1.8.575A2.823 2.823 0 0 0 9.15 8.1l1.35.55c.117-.383.308-.68.575-.888A1.46 1.46 0 0 1 12 7.45c.4 0 .725.108.975.325.25.217.375.492.375.825 0 .283-.063.53-.188.738-.125.208-.345.445-.662.712a5.73 5.73 0 0 0-.675.637c-.167.192-.292.38-.375.563a1.78 1.78 0 0 0-.162.613 10.81 10.81 0 0 0-.038 1.037zm.75 6.45c2.033-1.867 3.542-3.563 4.525-5.088C17.508 12.738 18 11.383 18 10.2c0-1.817-.58-3.304-1.738-4.462C15.104 4.579 13.683 4 12 4c-1.683 0-3.104.58-4.263 1.737C6.58 6.896 6 8.383 6 10.2c0 1.183.492 2.538 1.475 4.063.983 1.524 2.492 3.22 4.525 5.087zM12 22c-2.683-2.283-4.688-4.404-6.013-6.363C4.662 13.68 4 11.867 4 10.2c0-2.5.804-4.492 2.412-5.975C8.021 2.742 9.883 2 12 2s3.98.742 5.587 2.225C19.197 5.708 20 7.7 20 10.2c0 1.667-.663 3.48-1.988 5.438C16.688 17.595 14.683 19.716 12 22z"/></symbol><symbol viewBox="0 0 24 24" id="lock" xmlns="http://www.w3.org/2000/svg"><path fill-rule="evenodd" clip-rule="evenodd" d="M18 9h-1V7c0-2.76-2.24-5-5-5S7 4.24 7 7v2H6c-1.1 0-2 .9-2 2v9c0 1.1.9 2 2 2h12c1.1 0 2-.9 2-2v-9c0-1.1-.9-2-2-2zm-6 8.5c-1.1 0-2-.9-2-2s.9-2 2-2 2 .9 2 2-.9 2-2 2zM9 9V7c0-1.66 1.34-3 3-3s3 1.34 3 3v2H9z"/></symbol><symbol viewBox="0 0 24 24" id="lock-open" xmlns="http://www.w3.org/2000/svg"><path d="M18.5 8.167h-1V6.262c0-2.629-2.24-4.762-5-4.762s-5 2.133-5 4.762h2c0-1.581 1.34-2.857 3-2.857s3 1.276 3 2.857v1.905h-9c-1.1 0-2 .857-2 1.904v9.524c0 1.048.9 1.905 2 1.905h12c1.1 0 2-.857 2-1.905v-9.524c0-1.047-.9-1.904-2-1.904zm0 11.428h-12v-9.524h12v9.524z"/><path d="M14.5 14.929c0 1.1-.9 2-2 2s-2-.9-2-2 .9-2 2-2 2 .9 2 2z"/></symbol><symbol viewBox="0 0 24 24" id="login" xmlns="http://www.w3.org/2000/svg"><path fill-rule="evenodd" d="M10.3 7.7a.984.984 0 0 0 0 1.4l1.9 1.9H3c-.55 0-1 .45-1 1s.45 1 1 1h9.2l-1.9 1.9a.984.984 0 0 0 0 1.4c.39.39 1.01.39 1.4 0l3.59-3.59a.996.996 0 0 0 0-1.41L11.7 7.7a.984.984 0 0 0-1.4 0zM20 19h-7c-.55 0-1 .45-1 1s.45 1 1 1h7c1.1 0 2-.9 2-2V5c0-1.1-.9-2-2-2h-7c-.55 0-1 .45-1 1s.45 1 1 1h7v14z"/></symbol><symbol viewBox="0 0 24 24" id="logout" xmlns="http://www.w3.org/2000/svg"><path fill-rule="evenodd" d="M11 3c.55 0 1 .45 1 1l-.007.116A1.004 1.004 0 0 1 11 5H5v14h6c.55 0 1 .45 1 1l-.007.116A1.004 1.004 0 0 1 11 21H5c-1.1 0-2-.9-2-2V5c0-1.1.9-2 2-2zm6 6.21c0-.45.54-.67.86-.35l2.79 2.79c.19.19.19.51-.01.7l-2.79 2.79c-.31.32-.85.1-.85-.35V13h-7c-.55 0-1-.45-1-1l.007-.116c.058-.496.482-.884.993-.884h7z"/></symbol><symbol viewBox="0 0 24 24" id="map" xmlns="http://www.w3.org/2000/svg"><path d="m15 21-6-2.1-4.65 1.8a.903.903 0 0 1-.925-.113A.988.988 0 0 1 3 19.75v-14c0-.217.063-.408.188-.575A1.13 1.13 0 0 1 3.7 4.8L9 3l6 2.1 4.65-1.8a.903.903 0 0 1 .925.113.988.988 0 0 1 .425.837v14a.933.933 0 0 1-.188.575 1.129 1.129 0 0 1-.512.375L15 21zm-1-2.45V6.85l-4-1.4v11.7l4 1.4zm2 0 3-1V5.7l-3 1.15v11.7zM5 18.3l3-1.15V5.45l-3 1V18.3z"/></symbol><symbol viewBox="0 0 24 24" id="menu" xmlns="http://www.w3.org/2000/svg"><path d="M4 18h16c.55 0 1-.45 1-1s-.45-1-1-1H4c-.55 0-1 .45-1 1s.45 1 1 1zm0-5h16c.55 0 1-.45 1-1s-.45-1-1-1H4c-.55 0-1 .45-1 1s.45 1 1 1zM3 7c0 .55.45 1 1 1h16c.55 0 1-.45 1-1s-.45-1-1-1H4c-.55 0-1 .45-1 1z" fill-rule="evenodd"/></symbol><symbol viewBox="0 0 24 24" id="message" xmlns="http://www.w3.org/2000/svg"><path fill-rule="evenodd" d="M20 2H4c-1.1 0-2 .9-2 2v18l4-4h14c1.1 0 2-.9 2-2V4c0-1.1-.9-2-2-2z"/></symbol><symbol viewBox="0 0 24 24" id="message-answer" xmlns="http://www.w3.org/2000/svg"><path fill-rule="evenodd" d="M20 6h-1v8c0 .55-.45 1-1 1H6v1c0 1.1.9 2 2 2h10l4 4V8c0-1.1-.9-2-2-2zm-3 5V4c0-1.1-.9-2-2-2H4c-1.1 0-2 .9-2 2v13l4-4h9c1.1 0 2-.9 2-2z"/></symbol><symbol viewBox="0 0 24 24" id="minus" xmlns="http://www.w3.org/2000/svg"><path d="M18 13H6c-.55 0-1-.45-1-1s.45-1 1-1h12c.55 0 1 .45 1 1s-.45 1-1 1z" fill-rule="evenodd"/></symbol><symbol viewBox="0 0 24 24" id="minus-circle" xmlns="http://www.w3.org/2000/svg"><path d="M12 2C6.48 2 2 6.48 2 12s4.48 10 10 10 10-4.48 10-10S17.52 2 12 2zm4 11H8c-.55 0-1-.45-1-1s.45-1 1-1h8c.55 0 1 .45 1 1s-.45 1-1 1z" fill-rule="evenodd"/></symbol><symbol viewBox="0 0 24 24" id="minus-circle-o" xmlns="http://www.w3.org/2000/svg"><path d="M7 12c0 .55.45 1 1 1h8c.55 0 1-.45 1-1s-.45-1-1-1H8c-.55 0-1 .45-1 1zm5-10C6.48 2 2 6.48 2 12s4.48 10 10 10 10-4.48 10-10S17.52 2 12 2zm0 18c-4.41 0-8-3.59-8-8s3.59-8 8-8 8 3.59 8 8-3.59 8-8 8z" fill-rule="evenodd"/></symbol><symbol viewBox="0 0 24 24" id="more-horizontal" xmlns="http://www.w3.org/2000/svg"><path d="M6 10c-1.1 0-2 .9-2 2s.9 2 2 2 2-.9 2-2-.9-2-2-2zm12 0c-1.1 0-2 .9-2 2s.9 2 2 2 2-.9 2-2-.9-2-2-2zm-6 0c-1.1 0-2 .9-2 2s.9 2 2 2 2-.9 2-2-.9-2-2-2z" fill-rule="evenodd"/></symbol><symbol viewBox="0 0 24 24" id="more-vertical" xmlns="http://www.w3.org/2000/svg"><path d="M12 8c1.1 0 2-.9 2-2s-.9-2-2-2-2 .9-2 2 .9 2 2 2zm0 2c-1.1 0-2 .9-2 2s.9 2 2 2 2-.9 2-2-.9-2-2-2zm0 6c-1.1 0-2 .9-2 2s.9 2 2 2 2-.9 2-2-.9-2-2-2z" fill-rule="evenodd"/></symbol><symbol viewBox="0 0 24 24" id="page-first" xmlns="http://www.w3.org/2000/svg"><path d="M7 18a.967.967 0 0 1-.713-.288A.968.968 0 0 1 6 17V7c0-.283.096-.52.287-.713A.968.968 0 0 1 7 6c.283 0 .52.096.713.287.191.192.287.43.287.713v10a.97.97 0 0 1-.287.712A.967.967 0 0 1 7 18zm6.8-6 3.9 3.9a.948.948 0 0 1 .275.7.948.948 0 0 1-.275.7.948.948 0 0 1-.7.275.948.948 0 0 1-.7-.275l-4.6-4.6a.877.877 0 0 1-.212-.325 1.106 1.106 0 0 1-.063-.375c0-.133.02-.258.063-.375a.877.877 0 0 1 .212-.325l4.6-4.6a.948.948 0 0 1 .7-.275.95.95 0 0 1 .7.275.948.948 0 0 1 .275.7.948.948 0 0 1-.275.7L13.8 12z"/></symbol><symbol viewBox="0 0 24 24" id="page-last" xmlns="http://www.w3.org/2000/svg"><path d="M10.2 12 6.3 8.1a.948.948 0 0 1-.275-.7.95.95 0 0 1 .275-.7.948.948 0 0 1 .7-.275.95.95 0 0 1 .7.275l4.6 4.6c.1.1.17.208.212.325.042.117.063.242.063.375s-.02.258-.063.375a.877.877 0 0 1-.212.325l-4.6 4.6a.948.948 0 0 1-.7.275.948.948 0 0 1-.7-.275.948.948 0 0 1-.275-.7.95.95 0 0 1 .275-.7l3.9-3.9zM17 6a.97.97 0 0 1 .712.287c.192.192.288.43.288.713v10c0 .283-.096.52-.288.712A.968.968 0 0 1 17 18a.968.968 0 0 1-.713-.288A.968.968 0 0 1 16 17V7c0-.283.096-.52.287-.713A.968.968 0 0 1 17 6z"/></symbol><symbol viewBox="0 0 24 24" id="pause" xmlns="http://www.w3.org/2000/svg"><path fill-rule="evenodd" d="M8 19c1.1 0 2-.9 2-2V7c0-1.1-.9-2-2-2s-2 .9-2 2v10c0 1.1.9 2 2 2zm6-12v10c0 1.1.9 2 2 2s2-.9 2-2V7c0-1.1-.9-2-2-2s-2 .9-2 2z"/></symbol><symbol viewBox="0 0 24 24" id="pause-circle" xmlns="http://www.w3.org/2000/svg"><path d="M12 2c5.52 0 10 4.48 10 10s-4.48 10-10 10S2 17.52 2 12 6.48 2 12 2zm-2 6c-.55 0-1 .45-1 1v6c0 .55.45 1 1 1s1-.45 1-1V9c0-.55-.45-1-1-1zm4 0c-.55 0-1 .45-1 1v6c0 .55.45 1 1 1s1-.45 1-1V9c0-.55-.45-1-1-1z" fill-rule="evenodd"/></symbol><symbol viewBox="0 0 24 24" id="pencil" xmlns="http://www.w3.org/2000/svg"><path fill-rule="evenodd" d="M3 17.46v3.04c0 .28.22.5.5.5h3.04c.13 0 .26-.05.35-.15L17.81 9.94l-3.75-3.75L3.15 17.1c-.1.1-.15.22-.15.36zM20.71 7.04a.996.996 0 0 0 0-1.41l-2.34-2.34a.996.996 0 0 0-1.41 0l-1.83 1.83 3.75 3.75 1.83-1.83z"/></symbol><symbol viewBox="0 0 24 24" id="person" xmlns="http://www.w3.org/2000/svg"><path fill-rule="evenodd" d="M12 12c2.21 0 4-1.79 4-4s-1.79-4-4-4-4 1.79-4 4 1.79 4 4 4zm0 2c-2.67 0-8 1.34-8 4v1c0 .55.45 1 1 1h14c.55 0 1-.45 1-1v-1c0-2.66-5.33-4-8-4z"/></symbol><symbol viewBox="0 0 24 24" id="phone" xmlns="http://www.w3.org/2000/svg"><path fill-rule="evenodd" d="m19.236 15.275-2.545-.29a1.995 1.995 0 0 0-1.643.57L13.204 17.4a15.076 15.076 0 0 1-6.603-6.603l1.854-1.854c.43-.43.64-1.032.57-1.643l-.29-2.525A2.005 2.005 0 0 0 6.741 3H5.008c-1.133 0-2.074.942-2.004 2.074.53 8.557 7.375 15.391 15.922 15.922 1.132.07 2.074-.872 2.074-2.004V17.26a1.986 1.986 0 0 0-1.764-1.984z"/></symbol><symbol viewBox="0 0 24 24" id="play" xmlns="http://www.w3.org/2000/svg"><path fill-rule="evenodd" d="M7 7.001v10.36c0 .79.87 1.27 1.54.84l8.14-5.18a1 1 0 0 0 0-1.69l-8.14-5.17a.998.998 0 0 0-1.54.84z"/></symbol><symbol viewBox="0 0 24 24" id="play-circle" xmlns="http://www.w3.org/2000/svg"><path d="M12 2c5.52 0 10 4.48 10 10s-4.48 10-10 10S2 17.52 2 12 6.48 2 12 2zm-1.2 6.1a.5.5 0 0 0-.8.4v7c0 .41.47.65.8.4l4.67-3.5c.27-.2.27-.6 0-.8z" fill-rule="evenodd"/></symbol><symbol viewBox="0 0 24 24" id="plus" xmlns="http://www.w3.org/2000/svg"><path d="M18 13h-5v5c0 .55-.45 1-1 1s-1-.45-1-1v-5H6c-.55 0-1-.45-1-1s.45-1 1-1h5V6c0-.55.45-1 1-1s1 .45 1 1v5h5c.55 0 1 .45 1 1s-.45 1-1 1z" fill-rule="evenodd"/></symbol><symbol viewBox="0 0 24 24" id="plus-circle" xmlns="http://www.w3.org/2000/svg"><path d="M12 2C6.48 2 2 6.48 2 12s4.48 10 10 10 10-4.48 10-10S17.52 2 12 2zm4 11h-3v3c0 .55-.45 1-1 1s-1-.45-1-1v-3H8c-.55 0-1-.45-1-1s.45-1 1-1h3V8c0-.55.45-1 1-1s1 .45 1 1v3h3c.55 0 1 .45 1 1s-.45 1-1 1z" fill-rule="evenodd"/></symbol><symbol viewBox="0 0 24 24" id="plus-circle-o" xmlns="http://www.w3.org/2000/svg"><path d="M12 7c-.55 0-1 .45-1 1v3H8c-.55 0-1 .45-1 1s.45 1 1 1h3v3c0 .55.45 1 1 1s1-.45 1-1v-3h3c.55 0 1-.45 1-1s-.45-1-1-1h-3V8c0-.55-.45-1-1-1zm0-5C6.48 2 2 6.48 2 12s4.48 10 10 10 10-4.48 10-10S17.52 2 12 2zm0 18c-4.41 0-8-3.59-8-8s3.59-8 8-8 8 3.59 8 8-3.59 8-8 8z" fill-rule="evenodd"/></symbol><symbol viewBox="0 0 24 24" id="question-circle" xmlns="http://www.w3.org/2000/svg"><path fill-rule="evenodd" d="M12 2C6.48 2 2 6.48 2 12s4.48 10 10 10 10-4.48 10-10S17.52 2 12 2zm0 15a1 1 0 1 1 0 2 1 1 0 0 1 0-2zM8.18 8.83a4.002 4.002 0 0 1 4.43-2.79c1.74.26 3.11 1.73 3.35 3.47.27 1.91-1.03 2.65-1.99 3.56-.12.11-.23.22-.33.34l-.03.04c-.1.12-.2.25-.28.39l-.05.09c-.17.3-.28.65-.28 1.07h-2c0-.5.08-.91.2-1.25.01-.03.01-.05.02-.07l.04-.08c.07-.18.16-.35.25-.5l.03-.05.01-.02c.83-1.25 2.35-1.54 2.45-2.88.08-.97-.62-1.9-1.57-2.1-1.03-.22-1.98.39-2.3 1.28-.14.38-.47.67-.88.67h-.2a.907.907 0 0 1-.87-1.17z"/></symbol><symbol viewBox="0 0 24 24" id="question-circle-o" xmlns="http://www.w3.org/2000/svg"><path fill-rule="evenodd" d="M12 2C6.48 2 2 6.48 2 12s4.48 10 10 10 10-4.48 10-10S17.52 2 12 2zm0 18c-4.41 0-8-3.59-8-8s3.59-8 8-8 8 3.59 8 8-3.59 8-8 8zm0-4a1 1 0 1 1 0 2 1 1 0 0 1 0-2zM8.18 8.83a4.002 4.002 0 0 1 4.43-2.79c1.74.26 3.11 1.73 3.35 3.47.27 1.91-1.03 2.65-1.99 3.56-.12.11-.23.22-.33.34-.01.01-.02.03-.03.04-.1.12-.2.25-.28.39-.02.03-.03.06-.05.09-.17.3-.28.65-.28 1.07h-2c0-.5.08-.91.2-1.25.01-.03.01-.05.02-.07.01-.03.03-.05.04-.08.07-.18.16-.35.25-.5l.03-.05c0-.01.01-.01.01-.02.83-1.25 2.35-1.54 2.45-2.88.08-.97-.62-1.9-1.57-2.1-1.03-.22-1.98.39-2.3 1.28-.14.38-.47.67-.88.67h-.2a.907.907 0 0 1-.87-1.17z"/></symbol><symbol viewBox="0 0 24 24" id="search" xmlns="http://www.w3.org/2000/svg"><path fill-rule="evenodd" d="M16.198 14.607h-.834l-.296-.285a6.857 6.857 0 0 0 1.563-5.634c-.496-2.934-2.946-5.276-5.902-5.635a6.866 6.866 0 0 0-7.676 7.671c.359 2.955 2.703 5.403 5.638 5.899a6.866 6.866 0 0 0 5.638-1.562l.285.296v.833l4.488 4.485c.432.433 1.14.433 1.573 0a1.114 1.114 0 0 0 0-1.572l-4.477-4.496zm-6.335 0A4.744 4.744 0 0 1 5.112 9.86a4.744 4.744 0 0 1 4.751-4.75 4.744 4.744 0 0 1 4.751 4.749 4.744 4.744 0 0 1-4.751 4.748z"/></symbol><symbol viewBox="0 0 24 24" id="send" xmlns="http://www.w3.org/2000/svg"><path d="M2.016 21v-6.984l15-2.016-15-2.016V3l21 9-21 9z"/></symbol><symbol viewBox="0 0 24 24" id="slash-circle" xmlns="http://www.w3.org/2000/svg"><path fill-rule="evenodd" d="M12 2C6.48 2 2 6.48 2 12s4.48 10 10 10 10-4.48 10-10S17.52 2 12 2zm0 18c-4.42 0-8-3.58-8-8 0-1.85.63-3.55 1.69-4.9L16.9 18.31A7.902 7.902 0 0 1 12 20zm6.31-3.1L7.1 5.69A7.902 7.902 0 0 1 12 4c4.42 0 8 3.58 8 8 0 1.85-.63 3.55-1.69 4.9z"/></symbol><symbol viewBox="0 0 24 24" id="smartphone" xmlns="http://www.w3.org/2000/svg"><path fill-rule="evenodd" d="M17 1.01 7 1c-1.1 0-2 .9-2 2v18c0 1.1.9 2 2 2h10c1.1 0 2-.9 2-2V3c0-1.1-.9-1.99-2-1.99zM17 19H7V5h10v14z"/></symbol><symbol viewBox="0 0 24 24" id="smartphone-android" xmlns="http://www.w3.org/2000/svg"><path fill-rule="evenodd" d="M16 1H8C6.34 1 5 2.34 5 4v16c0 1.66 1.34 3 3 3h8c1.66 0 3-1.34 3-3V4c0-1.66-1.34-3-3-3zm-2.5 20h-3c-.28 0-.5-.22-.5-.5s.22-.5.5-.5h3c.28 0 .5.22.5.5s-.22.5-.5.5zm3.5-3H7V4h10v14z"/></symbol><symbol viewBox="0 0 24 24" id="smartphone-iphone" xmlns="http://www.w3.org/2000/svg"><path fill-rule="evenodd" d="M16.5 1h-9A2.5 2.5 0 0 0 5 3.5v17A2.5 2.5 0 0 0 7.5 23h9a2.5 2.5 0 0 0 2.5-2.5v-17A2.5 2.5 0 0 0 16.5 1zM12 22c-.83 0-1.5-.67-1.5-1.5S11.17 19 12 19s1.5.67 1.5 1.5S12.83 22 12 22zm5-4H7V4h10v14z"/></symbol><symbol viewBox="0 0 24 24" id="sort" xmlns="http://www.w3.org/2000/svg"><path d="M4 18h4c.55 0 1-.45 1-1s-.45-1-1-1H4c-.55 0-1 .45-1 1s.45 1 1 1zM3 7c0 .55.45 1 1 1h16c.55 0 1-.45 1-1s-.45-1-1-1H4c-.55 0-1 .45-1 1zm1 6h10c.55 0 1-.45 1-1s-.45-1-1-1H4c-.55 0-1 .45-1 1s.45 1 1 1z" fill-rule="evenodd"/></symbol><symbol viewBox="0 0 24 12" id="speed" xmlns="http://www.w3.org/2000/svg"><path d="M12.61 8.583V3.32c0-.185.153-.334.342-.334h5.418V.95c0-.135.083-.257.211-.308a.346.346 0 0 1 .372.072l5.15 5.042a.34.34 0 0 1 0 .473l-5.15 5.041a.348.348 0 0 1-.525-.05.33.33 0 0 1-.058-.186V8.918h-5.418a.345.345 0 0 1-.242-.098.333.333 0 0 1-.1-.237m-2.28.32H4.084c-.692 0-1.253-.32-1.253-.715 0-.395.56-.714 1.253-.714h6.245c.692 0 1.253.32 1.253.714 0 .394-.561.714-1.254.714m-.034-2.2H1.526C.554 6.702.2 6.382.2 5.988c0-.395.354-.715 1.326-.715h8.769c.972 0 1.325.32 1.325.715 0 .394-.353.714-1.325.714zm.2-2.19H5.067c-.602 0-1.09-.32-1.09-.714 0-.395.488-.714 1.09-.714h5.426c.6 0 1.09.32 1.09.714-.002.394-.49.714-1.09.714z"/></symbol><symbol viewBox="0 0 24 24" id="star" xmlns="http://www.w3.org/2000/svg"><path fill-rule="evenodd" d="M12 17.27 18.18 21l-1.64-7.03L22 9.24l-7.19-.61L12 2 9.19 8.63 2 9.24l5.46 4.73L5.82 21z"/></symbol><symbol viewBox="0 0 24 24" id="stop-circle" xmlns="http://www.w3.org/2000/svg"><path d="M12 2c5.52 0 10 4.48 10 10s-4.48 10-10 10S2 17.52 2 12 6.48 2 12 2zm3 6H9c-.55 0-1 .45-1 1v6c0 .55.45 1 1 1h6c.55 0 1-.45 1-1V9c0-.55-.45-1-1-1z" fill-rule="evenodd"/></symbol><symbol viewBox="0 0 24 24" id="stopwatch" xmlns="http://www.w3.org/2000/svg"><path d="M12.144 8.893c-2.543 0-4.612 2.033-4.612 4.531 0 2.5 2.07 4.533 4.612 4.533 2.543 0 4.612-2.034 4.612-4.533 0-2.498-2.07-4.531-4.612-4.531zm.146 3.943h2.296l-3.474 4.491.896-3.27h-2.27l3.398-4.48-.846 3.259zm6.3-4.702-2.272-1.851a.211.211 0 0 1-.029-.303l.701-.83a.222.222 0 0 1 .309-.028l2.271 1.852a.213.213 0 0 1 .029.303l-.7.83a.222.222 0 0 1-.31.027z"/><path d="M13.324 5.758V4.632h.339c.602 0 1.095-.393 1.095-.979 0-.585-.493-.926-1.095-.926h-3.22c-.602 0-1.095.341-1.095.926 0 .586.493.98 1.095.98h.339v1.126c-3.78.6-6.676 3.828-6.676 7.709 0 4.306 3.565 7.81 7.947 7.81S20 17.774 20 13.468c0-3.882-2.896-7.11-6.676-7.71zm-1.271 14.086c-3.578 0-6.489-2.86-6.489-6.376 0-3.516 2.911-6.376 6.489-6.376s6.488 2.86 6.488 6.376c0 3.515-2.911 6.376-6.488 6.376z"/></symbol><symbol viewBox="0 0 24 24" id="thumb-down" xmlns="http://www.w3.org/2000/svg"><path d="M15 3H6c-.83 0-1.54.5-1.84 1.22l-3.02 7.05c-.09.23-.14.47-.14.73v2c0 1.1.9 2 2 2h6.31l-.95 4.57-.03.32c0 .41.17.79.44 1.06L9.83 23l6.59-6.59c.36-.36.58-.86.58-1.41V5c0-1.1-.9-2-2-2zm4 0v12h4V3h-4z" fill-rule="evenodd"/></symbol><symbol viewBox="0 0 24 24" id="thumb-down-o" xmlns="http://www.w3.org/2000/svg"><path d="M15 3H6c-.83 0-1.54.5-1.84 1.22l-3.02 7.05c-.09.23-.14.47-.14.73v2c0 1.1.9 2 2 2h6.31l-.95 4.57-.03.32c0 .41.17.79.44 1.06L9.83 23l6.59-6.59c.36-.36.58-.86.58-1.41V5c0-1.1-.9-2-2-2zm0 12-4.34 4.34L12 14H3v-2l3-7h9v10zm4-12h4v12h-4V3z" fill-rule="evenodd"/></symbol><symbol viewBox="0 0 24 24" id="thumb-up" xmlns="http://www.w3.org/2000/svg"><path d="M1 21h4V9H1v12zm22-11c0-1.1-.9-2-2-2h-6.31l.95-4.57.03-.32c0-.41-.17-.79-.44-1.06L14.17 1 7.59 7.59C7.22 7.95 7 8.45 7 9v10c0 1.1.9 2 2 2h9c.83 0 1.54-.5 1.84-1.22l3.02-7.05c.09-.23.14-.47.14-.73v-2z" fill-rule="evenodd"/></symbol><symbol viewBox="0 0 24 24" id="thumb-up-o" xmlns="http://www.w3.org/2000/svg"><path d="M9 21h9c.83 0 1.54-.5 1.84-1.22l3.02-7.05c.09-.23.14-.47.14-.73v-2c0-1.1-.9-2-2-2h-6.31l.95-4.57.03-.32c0-.41-.17-.79-.44-1.06L14.17 1 7.58 7.59C7.22 7.95 7 8.45 7 9v10c0 1.1.9 2 2 2zM9 9l4.34-4.34L12 10h9v2l-3 7H9V9zM1 9h4v12H1V9z" fill-rule="evenodd"/></symbol><symbol viewBox="0 0 24 24" id="track-pig" xmlns="http://www.w3.org/2000/svg"><path fill-rule="evenodd" clip-rule="evenodd" d="M3 2a1 1 0 0 1 1 1v17h17a1 1 0 1 1 0 2H4a2 2 0 0 1-2-2V3a1 1 0 0 1 1-1z"/><path d="M7 18a1 1 0 1 1-2 0 1 1 0 0 1 2 0zm2-2a1 1 0 1 1-2 0 1 1 0 0 1 2 0zm2-2a1 1 0 1 1-2 0 1 1 0 0 1 2 0z"/><path fill-rule="evenodd" clip-rule="evenodd" d="M21.36 5.349a.658.658 0 0 0-.08.004.931.931 0 0 0-.756.7c-.035.187-.006.383.063.561.018.045.272.502.294.502l-.355.304S18.568 5.262 16.1 5.237h-.08c-1.733 0-2.652.574-2.652.574S12.424 5 11.588 5c-.18 0-.354.038-.513.128l.497 2.14s-.853.606-.81 1.345c0 0-.613.312-.988.493-.271.13-.329.344-.227.592l.607 1.715s.083.34.419.34h.01c.09-.003.167-.003.234-.003.383 0 .414.025.414.025s.795 1.09 1.124 1.211c.091.033-.388 1.657-.388 1.657s-.078.285.231.35c.011.002.112.003.25.003.34 0 .907-.005.907-.005h.021c.24 0 .33-.163.33-.163l.785-.83s.476.199 1.327.199c.425 0 .944-.05 1.543-.2 0 0 .552.634.808.874 0 0 .137.129.322.129l1.22-.002c.012 0 .368-.002.258-.35-.102-.316-.502-1.625-.502-1.625s1.498-1.211 1.685-2.46c.186-1.247-.312-2.73-.312-2.73l.542-.603s.02-.027.035-.043l-.097.13c.155-.17.28-.31.304-.328.179-.152.325-.569.363-.784.076-.414-.188-.856-.626-.856h-.002zm-3.853 1.793a.402.402 0 0 1-.365.24c-.07 0-.14-.02-.202-.057l-.003-.002c-.082-.047-.371-.2-.684-.2-.386 0-.677.158-.693.167a.387.387 0 0 1-.197.055.406.406 0 0 1-.369-.253.456.456 0 0 1 .17-.575 2.269 2.269 0 0 1 1.09-.275c.575 0 1.049.29 1.096.319a.457.457 0 0 1 .157.58zm3.698-.2-.005.001c-.067 0-.562-.37-.39-.9.037-.112.074-.209.145-.278a.46.46 0 0 1 .313-.13c.172 0 .339.11.393.356.124.565-.456.95-.456.95z"/></symbol><symbol viewBox="0 0 24 24" id="trash-can" xmlns="http://www.w3.org/2000/svg"><path fill-rule="evenodd" d="M6 19c0 1.1.9 2 2 2h8c1.1 0 2-.9 2-2V9c0-1.1-.9-2-2-2H8c-1.1 0-2 .9-2 2v10zM18 4h-2.5l-.71-.71c-.18-.18-.44-.29-.7-.29H9.91c-.26 0-.52.11-.7.29L8.5 4H6c-.55 0-1 .45-1 1s.45 1 1 1h12c.55 0 1-.45 1-1s-.45-1-1-1z"/></symbol><symbol viewBox="0 0 24 24" id="trash-can-o" xmlns="http://www.w3.org/2000/svg"><path fill-rule="evenodd" d="M6 19c0 1.1.9 2 2 2h8c1.1 0 2-.9 2-2V9c0-1.1-.9-2-2-2H8c-1.1 0-2 .9-2 2v10zM9 9h6c.55 0 1 .45 1 1v8c0 .55-.45 1-1 1H9c-.55 0-1-.45-1-1v-8c0-.55.45-1 1-1zm6.5-5-.71-.71c-.18-.18-.44-.29-.7-.29H9.91c-.26 0-.52.11-.7.29L8.5 4H6c-.55 0-1 .45-1 1s.45 1 1 1h12c.55 0 1-.45 1-1s-.45-1-1-1h-2.5z"/></symbol><symbol viewBox="0 0 24 24" id="twitter" xmlns="http://www.w3.org/2000/svg"><path fill-rule="evenodd" clip-rule="evenodd" d="M8.25 2 13 8.75 18 2h3.25l-6.75 9L22 22h-6.25L11 15l-5.25 7h-3l6.75-9L2 2h6.25zM7.5 3.5l11.75 17h-2.5L5 3.5h2.5z"/></symbol><symbol viewBox="0 0 24 24" id="twitter-old" xmlns="http://www.w3.org/2000/svg"><path fill-rule="evenodd" d="M22.957 5.144a9.12 9.12 0 0 1-2.59.715 4.57 4.57 0 0 0 1.983-2.513 9.278 9.278 0 0 1-2.866 1.093A4.478 4.478 0 0 0 16.192 3c-2.49 0-4.51 2.033-4.51 4.537 0 .36.042.706.117 1.037-3.75-.178-7.072-1.99-9.296-4.73a4.472 4.472 0 0 0-.61 2.284 4.55 4.55 0 0 0 2.005 3.78 4.473 4.473 0 0 1-2.042-.569v.057c0 2.2 1.552 4.036 3.617 4.454a4.55 4.55 0 0 1-2.027.078 4.529 4.529 0 0 0 4.22 3.153 9.007 9.007 0 0 1-5.594 1.942A9.51 9.51 0 0 1 1 18.962 12.767 12.767 0 0 0 7.927 21c8.3 0 12.832-6.917 12.832-12.906 0-.192 0-.387-.014-.58A9.141 9.141 0 0 0 23 5.161l-.043-.018z"/></symbol><symbol viewBox="0 0 24 24" id="upload" xmlns="http://www.w3.org/2000/svg"><path fill-rule="evenodd" clip-rule="evenodd" d="M7.891 10.282h1.422v4.765c0 .524.403.953.895.953h3.578c.491 0 .894-.429.894-.953v-4.765h1.422c.796 0 1.198-1.029.635-1.63L12.632 4.28a.853.853 0 0 0-1.261 0L7.264 8.653c-.563.6-.17 1.63.626 1.63zM6 19c0 .55.386 1 .857 1h10.286c.471 0 .857-.45.857-1s-.386-1-.857-1H6.857C6.386 18 6 18.45 6 19z"/></symbol><symbol viewBox="0 0 24 24" id="warning" xmlns="http://www.w3.org/2000/svg"><path fill-rule="evenodd" d="M4.1 21h15.8c1.616 0 2.623-1.767 1.815-3.175l-7.9-13.77a2.088 2.088 0 0 0-3.63 0l-7.9 13.77C1.477 19.233 2.485 21 4.1 21zm7.9-5a1 1 0 1 1 0 2 1 1 0 0 1 0-2zm0-8c.55 0 1 .45 1 1v4c0 .55-.45 1-1 1s-1-.45-1-1V9c0-.55.45-1 1-1z"/></symbol><symbol viewBox="0 0 24 24" id="warning-o" xmlns="http://www.w3.org/2000/svg"><path fill-rule="evenodd" d="M9.492 4.44c1.114-1.92 3.902-1.92 5.016 0l7.1 12.24C22.72 18.596 21.333 21 19.1 21H4.9c-2.232 0-3.62-2.404-2.509-4.32zm3.262.996a.87.87 0 0 0-1.508 0l-7.1 12.24A.881.881 0 0 0 4.9 19h14.2a.881.881 0 0 0 .755-1.325zM12 16a1 1 0 1 1 0 2 1 1 0 0 1 0-2zm0-8c.55 0 1 .45 1 1v4c0 .55-.45 1-1 1s-1-.45-1-1V9c0-.55.45-1 1-1z"/></symbol><symbol viewBox="0 0 24 24" id="youtube" xmlns="http://www.w3.org/2000/svg"><path fill-rule="evenodd" d="M22.54 6.816a2.725 2.725 0 0 0-1.914-1.868C18.911 4.5 12.01 4.5 12.01 4.5s-6.884-.009-8.616.448a2.725 2.725 0 0 0-1.915 1.868A27.307 27.307 0 0 0 1 12.01a27.308 27.308 0 0 0 .48 5.174 2.72 2.72 0 0 0 1.914 1.868c1.713.449 8.616.449 8.616.449s6.883 0 8.616-.45a2.725 2.725 0 0 0 1.915-1.867 27.29 27.29 0 0 0 .458-5.174 27.29 27.29 0 0 0-.458-5.193zM9.808 15.222V8.787l5.744 3.222-5.744 3.213z"/></symbol></svg>