<svg width="220" height="50" viewBox="0 0 220 50" fill="none" xmlns="http://www.w3.org/2000/svg">
<g clip-path="url(#clip0_16585_27542)">
<path d="M72.8173 33.3057C62.0061 33.3057 58.5234 26.0962 58.5234 18.3587C58.5234 8.51555 63.6534 1.60712 74.0084 1.60712C76.2175 1.59864 78.4182 1.87854 80.5555 2.43622L79.9156 7.87093C77.8945 7.2666 75.7973 6.95702 73.6874 6.95066C67.9133 6.95066 65.0748 11.3209 65.0748 17.3409C65.0748 24.1051 67.871 27.8774 74.0992 27.8774C76.1626 27.8329 78.1986 27.396 80.1015 26.5903L80.7879 31.9232C78.2281 32.8329 75.5333 33.2994 72.8173 33.3036" fill="black"/>
<path d="M88.803 8.12973C86.9001 8.14881 85.3393 6.61573 85.3203 4.7052C85.3203 4.69884 85.3203 4.69036 85.3203 4.684C85.3414 2.77771 86.9001 1.25099 88.7987 1.27219C88.7987 1.27219 88.8008 1.27219 88.803 1.27219C90.7396 1.27219 92.3257 2.77347 92.3257 4.67552C92.2962 6.60088 90.7206 8.14033 88.803 8.12125M85.8694 10.0297H91.7323V32.8881H85.8694V10.0297Z" fill="black"/>
<path d="M106.382 33.3546C101.341 33.3546 99.7826 31.5119 99.7826 26.179V14.5865H95.8438V10.0339H99.7403V2.99612L105.599 1.43335V10.0339H111.145V14.5865H105.599V24.6141C105.599 27.5573 106.287 28.3843 108.304 28.3843C109.263 28.3843 110.218 28.2613 111.145 28.0174V32.7545C109.586 33.1447 107.988 33.3461 106.38 33.3546" fill="black"/>
<path d="M119.515 8.12973C117.612 8.14669 116.056 6.60937 116.039 4.69884C116.039 4.6946 116.039 4.68824 116.039 4.684C116.06 2.77771 117.617 1.25099 119.515 1.27219C121.454 1.27219 123.038 2.77347 123.038 4.67552C123.009 6.60088 121.433 8.14033 119.515 8.12125M116.586 10.0297H122.449V32.8881H116.584V10.0297H116.586Z" fill="black"/>
<path d="M127.664 32.8924V28.7087L136.83 15.1824C135.958 15.2312 134.173 15.2778 131.972 15.2778H127.941V10.0339H143.882V14.2176L134.904 27.5658C135.865 27.5192 138.384 27.5192 140.08 27.5192H144.066V32.9009L127.664 32.8924Z" fill="black"/>
<path d="M167.841 22.4069H153.731C153.685 26.6838 155.79 28.7534 160.004 28.7534C162.293 28.7534 164.557 28.2657 166.648 27.3263L167.197 31.881C164.593 32.8755 161.829 33.3802 159.043 33.3654C151.807 33.3654 147.773 29.7288 147.773 21.6795C147.773 14.6821 151.621 9.53784 158.449 9.53784C165.277 9.53784 168.023 14.0926 168.023 19.7478C168.023 20.6405 167.964 21.5332 167.841 22.4175M158.264 13.8508C155.837 13.8508 154.141 15.6447 153.828 18.4056H162.196C162.287 15.5514 160.73 13.8508 158.255 13.8508" fill="black"/>
<path d="M186.911 32.8924V18.2612C186.911 15.8715 186.277 14.4444 184.117 14.4444C181.141 14.4444 178.805 17.8371 178.805 21.849V32.8881H172.93V10.0339H178.463C178.465 11.3889 178.36 12.7438 178.144 14.0818L178.186 14.1264C179.563 11.4122 182.222 9.5271 185.929 9.5271C191.063 9.5271 192.71 12.8392 192.71 16.8405V32.8924H186.911Z" fill="black"/>
<path d="M203.023 33.3548C201.429 33.3357 199.836 33.1936 198.263 32.9307L198.398 28.1024C199.997 28.535 201.644 28.7661 203.3 28.7937C205.545 28.7937 207.013 27.8713 207.013 26.3552C207.013 22.3051 197.805 24.6058 197.805 16.8322C197.805 12.8309 201.057 9.5188 207.469 9.5188C208.867 9.54849 210.261 9.68843 211.636 9.94289L211.452 14.5888C210.077 14.1986 208.656 13.9972 207.228 13.9908C204.937 13.9908 203.849 14.9111 203.849 16.336C203.849 20.0638 213.195 18.4077 213.195 25.8123C213.195 30.3204 209.254 33.3569 203.023 33.3569" fill="black"/>
<path d="M63.3773 46.8727V48.4164C63.3773 49.1988 63.9159 49.3303 64.5959 49.4087C64.6719 49.4193 64.617 49.8159 64.5304 49.8159H61.071C60.9823 49.8159 60.9168 49.4193 61.0056 49.4087C61.5758 49.3303 61.9053 49.0991 61.9053 48.4164V43.5648C61.9053 42.8353 61.5314 42.6275 61.0056 42.4833C60.9168 42.4621 60.9718 42.0592 61.071 42.0762C61.4913 42.125 61.9158 42.1462 62.3382 42.1419C63.2062 42.1419 63.9095 42.0762 64.4692 42.0762C66.2264 42.0762 67.6372 42.7123 67.6372 44.4341C67.6498 46.3871 65.8145 47.2459 63.3773 46.8727ZM63.3773 43.5648V46.3086C65.1661 46.5525 66.068 46.0669 66.068 44.6886C66.068 43.4863 65.3203 42.6933 64.1672 42.6933C63.5315 42.6933 63.3773 42.9138 63.3773 43.5648Z" fill="black"/>
<path d="M82.2536 49.8604C81.5081 50.0724 80.5197 50.0915 79.8164 49.1882L78.1416 47.0253C77.6474 46.3892 77.1426 46.3086 76.3971 46.298V48.4185C76.3971 49.2009 76.9335 49.3324 77.6157 49.4108C77.6917 49.4215 77.6368 49.818 77.5502 49.818H74.095C74.0063 49.818 73.9409 49.4215 74.0275 49.4108C74.5998 49.3324 74.9293 49.1013 74.9293 48.4185V43.5648C74.9293 42.8353 74.5555 42.6275 74.0275 42.4833C73.9409 42.4621 73.9958 42.0592 74.095 42.0762C74.5153 42.125 74.9398 42.1462 75.3622 42.1419C76.2302 42.1419 77.0412 42.0762 77.5798 42.0762C79.3158 42.0762 80.3908 42.7802 80.3908 44.1161C80.3908 45.3608 79.3919 46.0012 78.4035 46.0563V46.1008C78.8766 46.1008 79.2271 46.3129 79.7213 46.9278L81.3138 48.9337C81.677 49.396 82.0382 49.5296 82.2473 49.5296C82.3423 49.5296 82.3191 49.8307 82.2536 49.8604ZM78.8597 44.4235C78.8597 43.2552 78.1585 42.6933 77.2123 42.6933C76.5787 42.6933 76.4013 42.9456 76.4013 43.5648V45.7573H76.6864C78.3105 45.7573 78.8597 45.4817 78.8597 44.4235Z" fill="black"/>
<path d="M88.6828 49.4065C89.253 49.3281 89.5825 49.0969 89.5825 48.4142V43.4947C89.5825 42.8119 89.253 42.5808 88.6828 42.5023C88.5941 42.5023 88.6596 42.0952 88.7483 42.0952H91.8888C91.9775 42.0952 92.0429 42.4917 91.9563 42.5023C91.4938 42.5702 91.0545 42.7144 91.0545 43.4947V48.4142C91.0545 49.186 91.4938 49.3408 91.9563 49.4065C92.0429 49.4171 91.9775 49.8137 91.8888 49.8137H88.7483C88.6596 49.8137 88.5941 49.4193 88.6828 49.4065Z" fill="black"/>
<path d="M106.465 42.4831C106.026 42.5488 105.741 42.7375 105.357 43.6409L103.483 47.9963C103.109 48.8678 102.934 49.3746 102.934 49.8156C102.934 49.8813 102.176 50.0573 102.144 49.981L99.4747 43.6515C99.0903 42.7248 98.7946 42.5488 98.3659 42.4831C98.2223 42.4619 98.2561 42.0972 98.3976 42.0972H101.418C101.561 42.0972 101.582 42.4725 101.452 42.4831C101.046 42.5382 100.649 42.7375 101.029 43.6409L102.776 47.8818L104.533 43.6409C104.917 42.7142 104.489 42.5488 103.984 42.4831C103.84 42.4831 103.874 42.0972 104.018 42.0972H106.44C106.554 42.0972 106.598 42.4619 106.465 42.4831Z" fill="black"/>
<path d="M119.085 49.8156H116.055C115.9 49.8156 115.9 49.4402 116.021 49.419C116.418 49.3427 116.866 49.207 116.46 48.2719L116.373 48.0853C116.264 47.8096 116.109 47.7757 115.801 47.7757H113.605C113.275 47.7757 113.123 47.8096 113.013 48.0853L112.946 48.2719C112.561 49.1985 112.98 49.3533 113.508 49.419C113.649 49.4402 113.617 49.8156 113.474 49.8156H111.047C110.914 49.8156 110.882 49.4402 111.013 49.419C111.463 49.3427 111.727 49.207 112.122 48.2719L113.979 43.9716C114.401 43.0004 114.54 42.5721 114.54 42.1523C114.54 42.0865 115.307 41.9105 115.341 41.9869L118.021 48.2613C118.405 49.1752 118.669 49.3533 119.108 49.419C119.263 49.4402 119.218 49.8156 119.085 49.8156ZM115.89 46.9381L114.703 44.0607L113.508 46.9381C113.44 47.0929 113.594 47.1141 113.738 47.1141H115.66C115.801 47.1141 115.966 47.0929 115.89 46.9381Z" fill="black"/>
<path d="M126.092 49.4193C126.86 49.3196 127.359 49.1648 127.359 48.5711V43.2106C127.359 42.9243 127.262 42.848 126.998 42.848H126.744C125.756 42.848 125.097 43.1237 124.911 43.5647C124.801 43.7959 124.406 43.7513 124.448 43.5647C124.569 43.1173 124.653 42.6593 124.702 42.197C124.723 41.985 124.846 41.9977 125.042 42.021C125.625 42.0762 126.02 42.0974 128.151 42.0974C130.282 42.0974 130.962 42.0762 131.566 42.021C131.777 41.9977 131.961 41.9765 131.885 42.197C131.739 42.6444 131.621 43.1025 131.534 43.5647C131.486 43.6707 131.361 43.7174 131.255 43.6707C131.209 43.6495 131.171 43.6114 131.15 43.5647C131.027 43.1406 130.516 42.848 129.61 42.848H129.304C129.04 42.848 128.881 42.9243 128.881 43.2106V48.569C128.881 49.1648 129.376 49.3196 130.149 49.4172C130.237 49.4278 130.17 49.8137 130.073 49.8137H126.17C126.081 49.8137 126.005 49.4299 126.092 49.4193Z" fill="black"/>
<path d="M138.188 49.4065C138.822 49.2411 139.307 49.1436 139.307 48.3272V43.4693C139.307 42.7844 138.868 42.6084 138.397 42.4769C138.308 42.4536 138.363 42.0677 138.452 42.0804C139.242 42.1779 140.79 42.1461 141.35 42.1461C142.351 42.1461 143.054 42.1016 143.987 42.0804C144.249 42.0804 144.26 42.2564 144.199 42.5045L143.935 43.5647C143.901 43.7174 143.626 43.7174 143.582 43.5647C143.407 43.0134 143.088 42.7377 141.738 42.7377C141.014 42.7377 140.771 42.9349 140.771 43.4756V45.2505C140.771 45.5367 140.915 45.5919 141.134 45.5919H141.386C142.22 45.5919 143.012 45.4816 143.44 45.119C143.55 45.0193 143.791 45.0405 143.692 45.2738L143.077 46.6627C142.991 46.8747 142.813 46.8599 142.693 46.6839C142.439 46.3213 141.892 46.1771 141.309 46.1771H141.134C140.923 46.1771 140.771 46.2322 140.771 46.5185V48.3166C140.771 48.9528 141.001 49.1987 141.892 49.1987C143.451 49.1987 144.186 48.4036 144.439 48.0176C144.515 47.9074 144.834 47.9752 144.834 48.1618C144.834 48.6792 144.34 49.8582 143.637 49.837C142.934 49.8158 142.429 49.7713 141.525 49.7713C140.526 49.7713 139.24 49.7395 138.251 49.837C138.144 49.8497 138.099 49.4193 138.188 49.4065Z" fill="black"/>
<path d="M166.792 47.5766C166.792 48.9676 165.505 49.837 163.706 49.837C163.178 49.837 162.608 49.7713 161.729 49.7713C161.131 49.7607 160.534 49.784 159.938 49.837C159.839 49.8497 159.784 49.4129 159.873 49.3959C160.506 49.2305 160.992 49.133 160.992 48.3166V43.4693C160.992 42.7844 160.553 42.6084 160.082 42.4769C159.993 42.4536 160.048 42.0677 160.137 42.0804C160.589 42.127 161.043 42.1504 161.497 42.1461C162.464 42.1461 163.113 42.0804 163.583 42.0804C164.99 42.0804 166.133 42.6741 166.154 43.8764C166.171 44.7055 165.577 45.4222 164.76 45.5537V45.6194C165.803 45.6152 166.792 46.3425 166.792 47.5766ZM162.464 43.4693V45.4201H163.552C164.276 45.4201 164.639 44.979 164.639 44.2178C164.639 43.2382 164.057 42.6868 163.161 42.6868C162.65 42.6826 162.464 42.8692 162.464 43.4693ZM165.231 47.8459C165.231 46.7666 164.54 46.0053 163.541 46.0053H162.454V48.3209C162.454 48.9273 162.728 49.2348 163.617 49.2348C164.452 49.2305 165.231 48.9825 165.231 47.8417V47.8459Z" fill="black"/>
<path d="M181.179 49.8156H178.148C177.994 49.8156 177.994 49.4402 178.115 49.419C178.512 49.3427 178.959 49.207 178.554 48.2719L178.467 48.0853C178.357 47.8096 178.203 47.7757 177.895 47.7757H175.698C175.369 47.7757 175.217 47.8096 175.107 48.0853L175.04 48.2719C174.655 49.1985 175.073 49.3533 175.601 49.419C175.743 49.4402 175.711 49.8156 175.568 49.8156H173.141C173.008 49.8156 172.976 49.4402 173.107 49.419C173.557 49.3427 173.821 49.207 174.216 48.2719L176.072 43.9716C176.495 43.0004 176.634 42.5721 176.634 42.1523C176.634 42.0865 177.401 41.9105 177.434 41.9869L180.115 48.2613C180.499 49.1752 180.763 49.3533 181.202 49.419C181.356 49.4402 181.312 49.8156 181.179 49.8156ZM177.984 46.9381L176.797 44.0607L175.601 46.9381C175.534 47.0929 175.688 47.1141 175.832 47.1141H177.753C177.895 47.1141 178.062 47.0929 177.984 46.9381Z" fill="black"/>
<path d="M194.541 49.716L189.356 44.4149V48.3738C189.356 49.135 189.795 49.2453 190.477 49.4107C190.564 49.4319 190.522 49.8178 190.412 49.8178H187.698C187.611 49.8178 187.544 49.4531 187.643 49.4107C188.065 49.2453 188.532 49.1986 188.532 48.3738V44.1816C188.532 43.3335 188.38 43.0239 188.148 42.6486C188.038 42.4832 187.937 42.3835 187.937 42.3517C187.932 42.216 188.038 42.1015 188.173 42.0972C188.175 42.0972 188.177 42.0972 188.179 42.0972H189.024C189.124 42.0845 189.223 42.1206 189.288 42.1969L194.357 47.445V43.5201C194.357 42.7376 193.85 42.6592 193.236 42.5044C193.149 42.4832 193.191 42.0972 193.301 42.0972H196.013C196.099 42.0972 196.144 42.4832 196.068 42.5044C195.584 42.6592 195.166 42.7376 195.166 43.5201V47.7313C195.147 48.395 195.191 49.0608 195.299 49.716C195.343 49.8814 195.179 49.9281 194.98 49.9281C194.809 49.9281 194.646 49.8496 194.541 49.716Z" fill="black"/>
<path d="M205.968 49.8156H202.825C202.738 49.8156 202.673 49.4191 202.76 49.4085C203.332 49.33 203.659 49.0989 203.659 48.4161V43.4967C203.659 42.8139 203.332 42.5828 202.76 42.5043C202.673 42.5043 202.738 42.0972 202.825 42.0972H205.968C206.054 42.0972 206.12 42.4937 206.033 42.5043C205.571 42.5721 205.131 42.7163 205.131 43.4967V48.4161C205.131 49.188 205.571 49.3427 206.033 49.4085C206.128 49.4191 206.054 49.8156 205.968 49.8156ZM210.8 49.8601C210.042 50.0722 209.019 50.0467 208.329 49.2855L205.254 45.9119L207.712 43.3546C208.219 42.8351 208.185 42.604 207.602 42.5064C207.471 42.4852 207.526 42.0993 207.615 42.0993H210.217C210.306 42.0993 210.371 42.4958 210.261 42.5064C209.585 42.6082 208.969 42.9538 208.525 43.4776L206.658 45.4411L209.448 48.4946C210.196 49.2876 210.58 49.5315 210.8 49.5315C210.886 49.5315 210.855 49.8305 210.8 49.8601Z" fill="black"/>
<path d="M0 0V49.873H49.6736V0H0ZM24.0765 41.5206C24.0786 43.2614 22.6763 44.6737 20.9423 44.6758C20.9233 44.6758 20.9064 44.6758 20.8874 44.6758C19.145 44.6758 17.7469 43.5201 17.7955 41.5206L17.8441 36.4124L10.5176 43.7704C9.2779 45.0151 7.26941 45.0151 6.02968 43.7704C4.78995 42.5256 4.78995 40.5091 6.02968 39.2665L13.3582 31.9085L8.27048 31.9573C6.28101 32.0061 5.12787 30.6045 5.12787 28.8509C5.10675 27.11 6.49432 25.6808 8.22825 25.6575C8.23881 25.6575 8.25148 25.6575 8.26204 25.6575H14.598C15.901 25.6426 17.0774 26.4357 17.5547 27.6528C18.3552 29.7457 20.0004 31.3996 22.0849 32.2054C23.2972 32.6846 24.0892 33.8657 24.0723 35.174L24.0765 41.5206ZM24.0765 14.7817C24.0934 16.09 23.3014 17.2732 22.087 17.7503C20.0025 18.5539 18.3552 20.2079 17.5547 22.3008C17.0774 23.5179 15.901 24.3131 14.598 24.2983H8.26204C6.52811 24.2983 5.11942 22.8882 5.11942 21.1473C5.11942 21.1282 5.11942 21.1091 5.11942 21.09C5.11942 19.3343 6.27256 17.9327 8.26204 17.9835L13.3519 18.0302L6.02123 10.6744C4.78151 9.42965 4.78151 7.4131 6.02123 6.16839C7.26096 4.92369 9.26945 4.92369 10.5092 6.16839L17.8356 13.5285L17.7891 8.42031C17.7406 6.41861 19.1366 5.26508 20.8811 5.26508C22.6171 5.23539 24.0469 6.62429 24.0765 8.3673C24.0765 8.38426 24.0765 8.40335 24.0765 8.42031V14.7817ZM43.4771 43.7704C42.2416 45.0151 40.2352 45.0172 38.9976 43.7767C38.9976 43.7767 38.9934 43.7725 38.9912 43.7704L31.6627 36.4124L31.7113 41.5206C31.7598 43.5201 30.3617 44.6758 28.6172 44.6758C26.8812 44.7012 25.4535 43.3102 25.4282 41.5672C25.4282 41.5524 25.4282 41.5354 25.4282 41.5206V35.1592C25.4113 33.8509 26.2032 32.6677 27.4176 32.1906C29.5021 31.3869 31.1495 29.733 31.9499 27.6401C32.4272 26.4229 33.6036 25.6278 34.9067 25.6426H41.2426C42.9765 25.6426 44.3831 27.0548 44.3831 28.7957C44.3831 28.8127 44.3831 28.8275 44.3831 28.8445C44.3831 30.5981 43.2321 31.9997 41.2426 31.951L36.1549 31.9022L43.4813 39.258C44.7189 40.507 44.7126 42.5256 43.4707 43.7704H43.4771ZM43.4771 10.6744L36.1443 18.0238L41.2299 17.9772C43.2215 17.9263 44.3725 19.33 44.3725 21.0836C44.4 22.8245 43.0167 24.2558 41.2827 24.2834C41.2658 24.2834 41.2468 24.2834 41.2299 24.2834H34.894C33.5909 24.2983 32.4146 23.5031 31.9373 22.2859C31.1368 20.1931 29.4895 18.5391 27.405 17.7333C26.1927 17.2541 25.4007 16.073 25.4155 14.7647V8.40335C25.4155 6.66034 26.8221 5.24812 28.5581 5.24812C28.575 5.24812 28.5898 5.24812 28.6067 5.24812C30.3512 5.24812 31.7472 6.40376 31.6986 8.40335L31.6585 13.5285L38.9849 6.16839C40.2246 4.92369 42.2331 4.92369 43.4728 6.16839C44.7126 7.4131 44.7126 9.42965 43.4728 10.6744H43.4771Z" fill="black"/>
<path d="M215.842 42.9583C215.842 42.9922 215.692 42.9922 215.677 42.9583C215.597 42.7462 215.453 42.3412 215.022 42.3412H214.879C214.784 42.3412 214.75 42.3688 214.75 42.4854V44.2454C214.75 44.5126 214.982 44.5274 215.303 44.5826C215.343 44.5826 215.303 44.7395 215.261 44.7395H213.783C213.734 44.7395 213.707 44.5889 213.742 44.5826C214.064 44.5211 214.294 44.5126 214.294 44.2454V42.4854C214.294 42.3688 214.26 42.3412 214.159 42.3412H214.021C213.599 42.3412 213.449 42.7526 213.367 42.9583C213.352 42.9922 213.189 42.9922 213.195 42.9583C213.244 42.6784 213.265 42.3942 213.257 42.1101H215.791C215.776 42.3942 215.793 42.6784 215.842 42.9583ZM219.958 44.7395H218.668C218.627 44.7395 218.592 44.5826 218.634 44.5762C218.866 44.5338 219.084 44.5062 219.084 44.1521L219.071 42.6445H219.01L218.376 44.0079C218.292 44.1966 218.222 44.3917 218.165 44.591C218.152 44.6589 218.091 44.6737 218.03 44.6737C217.969 44.6737 217.941 44.6589 217.907 44.591L217.012 42.6445H216.951L216.938 44.1521C216.938 44.5083 217.149 44.5359 217.381 44.5762C217.422 44.5762 217.394 44.7395 217.348 44.7395H216.241C216.207 44.7395 216.173 44.5826 216.214 44.5762C216.446 44.5338 216.651 44.5062 216.657 44.1521L216.678 42.706C216.678 42.3497 216.467 42.3158 216.235 42.2819C216.186 42.2819 216.22 42.1165 216.254 42.1165H217.162C217.265 42.1165 217.238 42.1716 217.348 42.4049L218.11 44.0694L218.856 42.4049C218.963 42.1589 218.917 42.1165 219.018 42.1165H219.933C219.975 42.1165 220.002 42.2755 219.96 42.2819C219.736 42.3222 219.523 42.3497 219.523 42.706V44.1521C219.523 44.5083 219.749 44.5423 219.975 44.5762C220.023 44.5826 219.99 44.7416 219.95 44.7416H219.958V44.7395Z" fill="black"/>
</g>
<defs>
<clipPath id="clip0_16585_27542">
<rect width="220" height="50" fill="white"/>
</clipPath>
</defs>
</svg>
